<?xml version="1.0" encoding="UTF-8"?>
<svg version="1.1" viewBox="0 0 1208 1600" width="1280" height="1280" xmlns="http://www.w3.org/2000/svg">
<path transform="translate(0)" d="m0 0h1208v1600h-1208v-1600z" fill="#FDFDFD"/>
<path transform="translate(390 229)" d="m0 0c0.707 0.00497 1.41 0.00994 2.14 0.0151 0.751-0.00261 1.5-0.00521 2.28-0.0079 2.54-0.00635 5.09 0.00169 7.63 0.00955 1.83-0.00159 3.66-0.00405 5.5-0.00732 5.05-0.00644 10.1-3.24e-4 15.2 0.00776 5.44 0.00656 10.9 0.00163 16.3-0.00188 10.7-0.00505 21.3 6.12e-4 32 0.00985 12.4 0.0104 24.8 0.0103 37.2 0.00983 22.8-5.16e-4 45.6 0.00953 68.4 0.0245 20.8 0.0136 41.7 0.0199 62.5 0.0192 1.34-4.04e-5 2.68-8.08e-5 4.01-1.21e-4 0.992-3.05e-5 0.992-3.05e-5 2-6.17e-5 25.1-7.6e-4 50.2 0.00489 75.4 0.0141 8.66 0.00302 17.3 0.00408 26 0.00453 10.5 6.81e-4 21.1 0.00513 31.6 0.0143 5.39 0.00463 10.8 0.00766 16.2 0.00641 4.92-0.00109 9.85 0.00239 14.8 0.00965 1.79 0.00182 3.58 0.00193 5.37 2.33e-4 2.42-0.00205 4.83 0.00197 7.25 0.00761 1.06-0.00308 1.06-0.00308 2.14-0.00623 4.81 0.0207 4.81 0.0207 7.03 1.13 0.0459 35.2 0.0811 70.3 0.102 105 0.0025 4.16 0.00509 8.32 0.00773 12.5 7.87e-4 1.24 7.87e-4 1.24 0.00159 2.51 0.00867 13.4 0.0244 26.7 0.0429 40.1 0.0188 13.7 0.0298 27.5 0.0339 41.2 0.00273 8.46 0.0113 16.9 0.0277 25.4 0.0107 5.82 0.0137 11.6 0.0112 17.5-0.00127 3.35 0.00164 6.69 0.0114 10 0.152 54.7-11.9 106-37.2 154-1.13 2.19-2.25 4.39-3.36 6.59-14.1 27.7-32.2 53.1-53.7 75.5-0.516 0.538-1.03 1.08-1.56 1.63-6.26 6.48-12.6 12.6-19.7 18.2-2.93 2.33-5.77 4.75-8.61 7.18-6.11 5.09-12.5 9.61-19.1 14-0.63 0.424-1.26 0.848-1.91 1.28-58 39-58 39-79.9 37.2-25-5.35-50-19.7-71.2-33.5-1.43-0.915-1.43-0.915-2.89-1.85-64.2-41.8-64.2-41.8-74.2-67.9-0.313-0.743-0.626-1.49-0.949-2.25-0.99-0.33-1.98-0.66-3-1-1.31-1.48-1.31-1.48-2.64-3.41-0.505-0.73-1.01-1.46-1.53-2.21-0.541-0.806-1.08-1.61-1.64-2.44-0.571-0.846-1.14-1.69-1.73-2.56-26.3-39.5-46.9-83.2-57.4-130-0.283-1.25-0.565-2.5-0.856-3.78-5.13-23.7-5.36-47.1-5.35-71.2-0.00246-2.71-0.00637-5.42-0.0102-8.13-0.00824-6.55-0.0111-13.1-0.0116-19.6-4.78e-4 -5.32-0.00254-10.6-0.0057-16-0.00878-15.1-0.0134-30.2-0.0127-45.3 4e-5 -0.811 7.99e-5 -1.62 1.21e-4 -2.46 4.09e-5 -0.812 8.18e-5 -1.62 1.24e-4 -2.46 4.08e-4 -13.2-0.00921-26.4-0.0233-39.6-0.0143-13.6-0.0213-27.2-0.0204-40.7 3.32e-4 -7.62-0.00243-15.2-0.0132-22.9-0.00907-6.47-0.0113-12.9-0.00449-19.4 0.00328-3.3 0.0022-6.6-0.00535-9.9-0.00765-3.57-0.00312-7.14 0.00463-10.7-0.00514-1.05-0.0103-2.1-0.0156-3.19 0.0046-0.951 0.0092-1.9 0.0139-2.88-2.17e-4 -0.825-4.35e-4 -1.65-6.59e-4 -2.5 0.558-4.45 3.48-4.23 7.28-4.25z" fill="#FDFDFD"/>
<path transform="translate(390 229)" d="m0 0c0.707 0.00497 1.41 0.00994 2.14 0.0151 0.751-0.00261 1.5-0.00521 2.28-0.0079 2.54-0.00635 5.09 0.00169 7.63 0.00955 1.83-0.00159 3.66-0.00405 5.5-0.00732 5.05-0.00644 10.1-3.24e-4 15.2 0.00776 5.44 0.00656 10.9 0.00163 16.3-0.00188 10.7-0.00505 21.3 6.12e-4 32 0.00985 12.4 0.0104 24.8 0.0103 37.2 0.00983 22.8-5.16e-4 45.6 0.00953 68.4 0.0245 20.8 0.0136 41.7 0.0199 62.5 0.0192 1.34-4.04e-5 2.68-8.08e-5 4.01-1.21e-4 0.992-3.05e-5 0.992-3.05e-5 2-6.17e-5 25.1-7.6e-4 50.2 0.00489 75.4 0.0141 8.66 0.00302 17.3 0.00408 26 0.00453 10.5 6.81e-4 21.1 0.00513 31.6 0.0143 5.39 0.00463 10.8 0.00766 16.2 0.00641 4.92-0.00109 9.85 0.00239 14.8 0.00965 1.79 0.00182 3.58 0.00193 5.37 2.33e-4 2.42-0.00205 4.83 0.00197 7.25 0.00761 1.06-0.00308 1.06-0.00308 2.14-0.00623 4.81 0.0207 4.81 0.0207 7.03 1.13 0.0459 35.2 0.0811 70.3 0.102 105 0.0025 4.16 0.00509 8.32 0.00773 12.5 7.87e-4 1.24 7.87e-4 1.24 0.00159 2.51 0.00867 13.4 0.0244 26.7 0.0429 40.1 0.0188 13.7 0.0298 27.5 0.0339 41.2 0.00273 8.46 0.0113 16.9 0.0277 25.4 0.0107 5.82 0.0137 11.6 0.0112 17.5-0.00127 3.35 0.00164 6.69 0.0114 10 0.152 54.7-11.9 106-37.2 154-1.13 2.19-2.25 4.39-3.36 6.59-14.1 27.7-32.2 53.1-53.7 75.5-0.516 0.538-1.03 1.08-1.56 1.63-6.26 6.48-12.6 12.6-19.7 18.2-2.93 2.33-5.77 4.75-8.61 7.18-6.11 5.09-12.5 9.61-19.1 14-0.63 0.424-1.26 0.848-1.91 1.28-58 39-58 39-79.9 37.2-25-5.35-50-19.7-71.2-33.5-1.43-0.915-1.43-0.915-2.89-1.85-64.2-41.8-64.2-41.8-74.2-67.9-0.313-0.743-0.626-1.49-0.949-2.25-0.99-0.33-1.98-0.66-3-1-1.31-1.48-1.31-1.48-2.64-3.41-0.505-0.73-1.01-1.46-1.53-2.21-0.541-0.806-1.08-1.61-1.64-2.44-0.571-0.846-1.14-1.69-1.73-2.56-26.3-39.5-46.9-83.2-57.4-130-0.283-1.25-0.565-2.5-0.856-3.78-5.13-23.7-5.36-47.1-5.35-71.2-0.00246-2.71-0.00637-5.42-0.0102-8.13-0.00824-6.55-0.0111-13.1-0.0116-19.6-4.78e-4 -5.32-0.00254-10.6-0.0057-16-0.00878-15.1-0.0134-30.2-0.0127-45.3 4e-5 -0.811 7.99e-5 -1.62 1.21e-4 -2.46 4.09e-5 -0.812 8.18e-5 -1.62 1.24e-4 -2.46 4.08e-4 -13.2-0.00921-26.4-0.0233-39.6-0.0143-13.6-0.0213-27.2-0.0204-40.7 3.32e-4 -7.62-0.00243-15.2-0.0132-22.9-0.00907-6.47-0.0113-12.9-0.00449-19.4 0.00328-3.3 0.0022-6.6-0.00535-9.9-0.00765-3.57-0.00312-7.14 0.00463-10.7-0.00514-1.05-0.0103-2.1-0.0156-3.19 0.0046-0.951 0.0092-1.9 0.0139-2.88-2.17e-4 -0.825-4.35e-4 -1.65-6.59e-4 -2.5 0.558-4.45 3.48-4.23 7.28-4.25zm4.97 180c-0.303 1.92-0.303 1.92-0.254 4.14-0.00564 0.869-0.0113 1.74-0.0171 2.63 0.00405 0.956 0.0081 1.91 0.0123 2.9-0.0035 1.01-0.00701 2.01-0.0106 3.05-0.00884 3.34-0.00295 6.69 0.00378 10-0.00135 2.33-0.00329 4.66-0.0058 6.99-0.00296 4.9 0.00136 9.81 0.0107 14.7 0.0113 6.24 0.0049 12.5-0.00714 18.7-0.00729 4.83-0.0049 9.65 2.56e-4 14.5 0.00132 2.3-2.58e-4 4.59-0.00496 6.89-0.0288 18 1.01 35.3 4.9 53 0.39 1.78 0.39 1.78 0.788 3.6 8.75 38.7 24.5 74.8 44.6 109 0.449 0.762 0.898 1.52 1.36 2.31 6.19 10.4 13.1 20.2 20.6 29.7 0.445 0.563 0.889 1.13 1.35 1.71 13.4 16.8 29.3 32.6 46.7 45.3 1.11 0.859 2.21 1.72 3.32 2.59 11 10 11 10 23.7 15.4v2c4.33 2.35 8.66 4.68 13 7 0.728 0.391 1.46 0.781 2.21 1.18 25.7 15.7 25.7 15.7 53.8 21.8 4-1.22 7.83-2.77 11.7-4.38 1.11-0.453 2.21-0.907 3.35-1.37 28.2-11.7 54.5-27.7 78-47.3 0.897-0.713 1.79-1.43 2.72-2.16 16.1-13.1 31-28.1 43.3-44.8 1.16-1.42 1.16-1.42 2.34-2.86 17.5-21.5 30.5-47.8 41.7-73.1 0.271-0.603 0.542-1.21 0.821-1.83 8.13-18.2 14.1-37.4 18.6-56.9 0.226-0.969 0.453-1.94 0.686-2.94 4.36-20.2 5.39-40.6 5.27-61.2-0.00307-2.36-0.00494-4.72-0.00568-7.08-0.00455-4.88-0.0188-9.77-0.0412-14.7-0.0287-6.27-0.0393-12.5-0.0437-18.8-0.00414-4.85-0.0139-9.69-0.0259-14.5-0.0057-2.32-0.0105-4.63-0.0143-6.95-0.00683-3.21-0.0204-6.41-0.0363-9.62-0.00112-0.958-0.00224-1.92-0.00339-2.9-0.00571-0.866-0.0114-1.73-0.0173-2.62-0.00297-0.756-0.00595-1.51-0.00901-2.29 0.0545-1.76 0.0545-1.76-1.13-2.72-2.23-0.0999-4.46-0.127-6.69-0.129-0.711-0.00175-1.42-0.00351-2.16-0.00531-2.41-0.0047-4.83-0.00218-7.24 2.34e-4 -1.74-0.00187-3.47-0.00417-5.21-0.00687-4.79-0.00615-9.59-0.00598-14.4-0.00481-5.16 2.03e-4 -10.3-0.00531-15.5-0.0101-10.1-0.00832-20.2-0.0111-30.4-0.0116-8.22-4.74e-4 -16.4-0.00252-24.7-0.0057-23.3-0.00881-46.6-0.0134-69.8-0.0127-1.88 5.99e-5 -1.88 5.99e-5 -3.81 1.21e-4 -1.26 4.09e-5 -2.52 8.18e-5 -3.81 1.24e-4 -20.4 4.07e-4 -40.8-0.00917-61.2-0.0233-20.9-0.0143-41.8-0.0213-62.7-0.0204-11.8 3.33e-4 -23.5-0.00245-35.3-0.0132-10-0.00908-20-0.0113-30-0.00449-5.11 0.00328-10.2 0.00327-15.3-0.00535-4.67-0.0078-9.34-0.0065-14 0.00228-1.7 0.00155-3.39-3.34e-4 -5.09-0.00586-2.29-0.00698-4.59-0.00183-6.88 0.00656-1.28-2.17e-4 -2.56-4.35e-4 -3.87-6.59e-4 -3.07-0.0592-3.07-0.0592-4.95 2.25z" fill="#003C7A"/>
<path transform="translate(533,431)" d="m0 0c1.67 1.67 3.33 3.33 5 5 2.94 0.092 3.96-0.969 6.19-2.88 7.14-5.39 14.6-5.49 23.2-4.88 0.992 0.0529 1.98 0.106 3.01 0.16 7.22 0.423 7.22 0.423 9.56 1.59v5c1.01 0.098 2.03 0.196 3.07 0.297 1.35 0.15 2.7 0.301 4.05 0.453 0.998 0.0928 0.998 0.0928 2.02 0.188 5.82 0.685 9.27 3.06 13.8 6.56 1.06 1.5 1.06 1.5 1 3.56-1.2 2.48-2.42 2.96-4.94 3.94 1.31 2.86 2.76 5.05 4.88 7.38 2.7 3.06 4.92 6.2 7.12 9.62 0.33 0.33 0.66 0.66 1 1-0.353 6.35-0.353 6.35-2.94 8.94-2.06 1.06-2.06 1.06-4.06 1.06 1.91 3.54 3.63 5.79 7 8-0.323 2.99-0.548 4.56-2.75 6.69-2.35 1.37-4.69 2.39-7.25 3.31 0.33 1.98 0.66 3.96 1 6 28.7 6.5 56.8 7.63 86.1 5.78 10.6-0.657 20.8-0.81 31.5 0.222 11.7 1.14 22.8 0.768 34.4-1 0.872-0.132 1.74-0.264 2.64-0.399 14.1-1.88 14.1-1.88 25.4-9.6 1.29-4.06 0.411-7.05-1.25-10.9-1.9-2.31-2.99-3.06-5.75-4.12-12.6-0.746-25.3 4-37.2 7.56-20.5 6.1-40.4 8.62-61.8 8.63-1.28 0.0122-2.55 0.0245-3.87 0.0371-14.2 0.0218-26.8-1.43-38.1-10.7-4.06-5.21-7.42-10.6-7.27-17.4 1.07-8.44 4.87-15.6 11.3-21.2 8.43-5.98 18.7-6.17 28.7-5.98 1.31 0.0234 1.31 0.0234 2.66 0.0473 3.66 0.0734 7.32 0.157 11 0.28 14.8 0.511 14.8 0.511 27.7-6.34 9.68-4.72 20.2-3.76 30.4-1.44 7.83 1.76 14.7 1.37 22.6 0.438 0.222 0.803 0.443 1.61 0.672 2.43 1.06 2.79 1.06 2.79 3.72 3.35 1.42 0.137 1.42 0.137 2.86 0.277 5.49 0.782 9.44 1.98 13 6.53 0.976 1.43 1.87 2.92 2.75 4.41-1.23-0.0696-1.23-0.0696-2.49-0.141-7.91-0.259-7.91-0.259-15.3 2.14-6.71 3.16-14 2.32-21.2 2 0.66 0.949 1.32 1.9 2 2.88 2 3.12 2 3.12 2 5.12-13.8 3.14-34.8 5.42-47.3-2.48-1.18-0.795-1.18-0.795-2.39-1.61-7.13-3.97-14-3.72-22-3.54-2.41 0.055-4.82 0.0615-7.23 0.0608-7.77 0.0528-14.9 0.244-22.1 3.56-3.05 3.27-3.89 5.21-4.5 9.62 0.235 3.37 0.235 3.37 2.12 5.62 14.3 10.5 41.9 6.96 58.8 4.57 10-1.64 19.7-4 29.3-7.12 4.47-1.41 8.98-2.67 13.5-3.96 0.894-0.258 1.79-0.517 2.71-0.783 12-3.45 25.8-5.53 37.7-0.432 6.33 3.91 10.5 9.27 12.4 16.5 0.77 8.22 1.23 16.2-4 23-0.463 0.601-0.926 1.2-1.4 1.82-13.3 15.1-37 16.1-55.6 18.2-1.12 3.36-0.833 4.6-0.0955 8 1.12 5.71 1.47 11.2 1.62 17 0.0707 2.07 0.142 4.13 0.213 6.2 0.101 3.2 0.198 6.41 0.289 9.61 0.092 3.13 0.201 6.25 0.311 9.38 0.033 1.42 0.033 1.42 0.0666 2.87 0.301 8.17 1.64 15.9 7.59 21.9 2.08 1.64 4.12 3.15 6.31 4.62 0.543 0.382 1.09 0.763 1.65 1.16 2.86 1.96 5.6 3.49 8.83 4.68 3.21 1.54 3.21 1.54 4.64 4.23 0.186 0.763 0.371 1.53 0.562 2.31-0.855 0.398-1.71 0.797-2.59 1.21-1.1 0.53-2.21 1.06-3.35 1.61-1.1 0.522-2.2 1.04-3.34 1.58-3.01 1.37-3.01 1.37-3.72 4.61 0.66 0.66 1.32 1.32 2 2v4c-0.953 0.485-1.91 0.969-2.89 1.47-1.27 0.676-2.53 1.35-3.8 2.03-0.626 0.315-1.25 0.629-1.9 0.953-10.2 5.54-13.1 17.5-17.3 27.6-0.765 1.86-1.54 3.71-2.31 5.57-0.675 1.64-0.675 1.64-1.36 3.32-2.54 5.17-5.02 8.28-10.5 10.3-26.5 8.84-26.5 8.84-39 3.66h-3c-0.33-2.31-0.66-4.62-1-7h-6v-8h-4c0.0977-2.23 0.0977-2.23 1-5 2.16-1.65 4.09-2.94 6.44-4.25 0.599-0.351 1.2-0.701 1.81-1.06 4.33-2.52 6.99-3.81 12-4 1.55-0.0628 1.55-0.0628 3.12-0.127 1.08-0.0393 2.16-0.0786 3.27-0.119 1.63-0.0648 1.63-0.0648 3.3-0.131 2.69-0.106 5.39-0.208 8.08-0.307 10.4-19.1 10.4-19.1 13-40-1.94-3.02-4.49-5.45-7-8-2.03-2.18-4.05-4.37-6.06-6.56-1.04-1.12-2.08-2.24-3.11-3.37-8.82-9.57-8.82-9.57-8.82-12.1-3.37 1.12-3.62 1.45-5.19 4.44-2.23 4.82-2.82 9.34-1.81 14.6 1.85 3.76 4.43 5.72 8.19 7.56 3.42 1.75 3.61 2.93 4.81 6.44-1.6 0.815-3.21 1.63-4.81 2.44-0.893 0.452-1.79 0.905-2.71 1.37-2.48 1.19-2.48 1.19-5.48 2.19v5h2c-0.148 1.77-0.148 1.77-1 4-2.48 1.82-2.48 1.82-5.62 3.69-9.7 6.26-14 14.1-18.8 24.3-2.27 4.37-3.61 5.7-8.31 7.36-1.48 0.425-2.97 0.84-4.46 1.25-1.1 0.312-1.1 0.312-2.21 0.631-2.2 0.62-4.4 1.22-6.6 1.81-0.693 0.193-1.39 0.387-2.1 0.586-4.26 1.14-8.18 1.71-12.6 1.73-1.08 0.0168-2.15 0.0335-3.26 0.0508-3.42-0.407-5.22-1.47-8.05-3.36-2.69-0.707-2.69-0.707-5-1v-5c-2.97-0.99-2.97-0.99-6-2 0.66-1.65 1.32-3.3 2-5-2.97-0.99-2.97-0.99-6-2 0.0703-1.74 0.0703-1.74 1-4 2.29-1.58 4.44-2.89 6.88-4.19 0.638-0.355 1.28-0.71 1.93-1.08 4.67-2.57 8.22-3.85 13.5-4.05 1.54-0.0628 1.54-0.0628 3.12-0.127 1.07-0.0393 2.14-0.0786 3.25-0.119 1.08-0.0432 2.17-0.0864 3.28-0.131 2.68-0.106 5.35-0.208 8.03-0.307 1.73-3.69 3.44-7.39 5.13-11.1 0.577-1.26 1.16-2.51 1.75-3.76 4.81-9.68 4.81-9.68 5.13-20.1-1.61-2.92-1.61-2.92-4-5.38-1.23-1.4-1.23-1.4-2.48-2.82-0.83-0.924-1.66-1.85-2.52-2.8-4.81-5.77-9.17-11.5-13-18-1.65 0.33-3.3 0.66-5 1v9c-0.727 0.00258-1.45 0.00516-2.2 0.00781-8.47 0.326-14.5 2.76-21.8 6.99 0.217 0.835 0.217 0.835 0.438 1.69 0.59 2.43 1.09 4.86 1.56 7.31-0.88 0.326-1.76 0.652-2.67 0.988-1.16 0.437-2.32 0.874-3.52 1.32-1.72 0.644-1.72 0.644-3.48 1.3-3.02 1.26-5.67 2.49-8.33 4.39-0.33 0.99-0.66 1.98-1 3 0.66 0.598 1.32 1.2 2 1.81 2 2.19 2 2.19 2 5.19-0.932 0.461-1.86 0.923-2.82 1.4-14.6 7.39-25.5 14.6-33.2 29.6-0.312 0.594-0.623 1.19-0.944 1.8-3.28 6.28-6.4 12.6-8.94 19.2-2.91 5.12-6.1 7.19-11.7 8.73-2.14 0.513-4.29 1.01-6.44 1.48-1.62 0.383-1.62 0.383-3.27 0.773-13.3 3.13-13.3 3.13-18.8 3.23-0.837 0.0258-1.67 0.0516-2.54 0.0781-2.9-0.396-4.14-1.55-6.4-3.33-2.7 0.222-2.7 0.222-5 1-1.11-3.33-1.54-6.53-2-10-1.65 0.33-3.3 0.66-5 1v-8h-4c0.164-2.27 0.164-2.27 1-5 11.8-9.87 25.5-9.31 40-9 2.48-7.18 4.54-14.4 6.5-21.8 0.295-1.09 0.59-2.18 0.895-3.3 4.75-14.8 4.75-14.8 5.61-29.9-1.79-3.23-1.79-3.23-4.25-6.25-5.25-7.05-8.14-14.1-9.75-22.8h-3c-0.66 1.32-1.32 2.64-2 4-2.78-0.376-4.59-0.673-6.81-2.44-1.19-1.56-1.19-1.56-1.19-3.56-0.811 0.277-1.62 0.554-2.46 0.84-5.57 1.82-10.7 3.34-16.5 3.6-4.07 0.225-4.76 0.359-8.06 3.12-0.959 1.21-0.959 1.21-1.94 2.44h-2c-0.33 0.99-0.66 1.98-1 3-1.85 1.39-1.85 1.39-4.06 2.69-0.733 0.437-1.47 0.874-2.22 1.32-0.566 0.326-1.13 0.652-1.71 0.988-0.93-2.79-1.19-4.77-1.32-7.67-0.0419-0.893-0.0838-1.79-0.127-2.71-0.0393-0.929-0.0786-1.86-0.119-2.81-0.0432-0.94-0.0864-1.88-0.131-2.85-0.106-2.32-0.208-4.64-0.307-6.96-1.88 0-3.75 0.0179-5.62 0.0625-2.38-0.0625-2.38-0.0625-3.38-1.06-0.133-1.33-0.203-2.68-0.246-4.02-0.0309-0.832-0.0619-1.66-0.0938-2.52-0.0322-0.895-0.0645-1.79-0.0977-2.71-0.172-3.58-0.365-7.17-0.562-10.8-0.0632-1.19-0.126-2.39-0.191-3.62-1.39-13.8-10.2-25.9-17.8-37.2-1.84-2.83-3.49-5.7-5.12-8.66-2.43-4.15-5.15-6.59-9.2-9.15-2.09-1.63-2.84-2.87-3.73-5.35-0.0898-2.18-0.0898-2.18 0.0625-4.44 0.113-4.03-0.536-6.3-3.06-9.56l4-1v-13c2.97-0.33 5.94-0.66 9-1-0.351-0.743-0.701-1.49-1.06-2.25-0.983-2.88-0.97-3.96 0.0625-6.75 3.92 0.545 5.9 1.63 9 4 1.7 0.526 1.7 0.526 3.44 1.06 5.14 2.14 6.54 7.06 8.56 11.9 1.89 5.51 3.46 11.1 5.05 16.7 2.64 8.99 5.76 14.8 13.1 20.6 0.538 0.442 1.08 0.883 1.63 1.34 2.02 1.64 3.91 3.18 6.25 4.35-0.0206-0.887-0.0412-1.77-0.0625-2.69 0.0554-2.93 0.393-5.47 1.06-8.31-0.722-0.248-1.44-0.495-2.19-0.75-3.06-1.36-5.28-3.08-7.81-5.25 1.39-3.37 2.98-4.99 6-7-0.32-3.73-0.844-4.85-3.62-7.5-2.38-2.5-2.38-2.5-2.44-5 1.28-3.01 2.93-5.02 5.06-7.5 1.24-1.84 2.46-3.68 3.66-5.55 1.67-1.8 2.96-2.07 5.34-2.45-0.188-2.44-0.188-2.44-1-5-1.95-1.23-1.95-1.23-4-2-0.495-0.99-0.495-0.99-1-2 4.59-5 9.16-8.21 16-9 3-0.071 6-0.0589 9 0-0.309-1.18-0.309-1.18-0.625-2.38-0.124-0.866-0.248-1.73-0.375-2.62 3.03-3.03 6.61-2.47 10.7-2.62 0.791-0.0387 1.58-0.0773 2.4-0.117 15.5-0.718 15.5-0.718 21.9 2.74z" fill="#003C7A"/>
<path transform="translate(234 863)" d="m0 0c0.808-0.00623 1.62-0.0125 2.45-0.0189 1.31 0.0138 1.31 0.0138 2.64 0.0279 1.36-7.48e-4 1.36-7.48e-4 2.74-0.00151 1.92 0.00234 3.83 0.0121 5.75 0.0286 2.91 0.0234 5.81 0.0206 8.72 0.0139 1.87 0.00558 3.74 0.0127 5.6 0.0215 1.29-0.00137 1.29-0.00137 2.6-0.00276 11 0.126 19.9 2.12 28.5 9.3 2.88 3.17 5.31 6.55 7.7 10.1 1.45 2.13 2.92 4.23 4.41 6.33 3.66 5.18 7.27 10.4 10.9 15.6 2.03 2.91 4.05 5.83 6.08 8.74 1.37 1.97 2.73 3.93 4.1 5.9 3.92 5.64 7.86 11.3 11.8 16.9 5.35 7.56 10.6 15.2 15.9 22.8 6.09 8.76 12.2 17.5 18.3 26.2 3.06 4.37 6.12 8.75 9.19 13.1 1.64 2.34 3.27 4.68 4.91 7.01 1.17 1.67 2.34 3.34 3.51 5.01 0.614 0.877 1.23 1.75 1.86 2.66 0.554 0.792 1.11 1.58 1.68 2.4 1.57 2.25 3.15 4.49 4.73 6.73 3.6 5.15 7.18 10.3 10.8 15.5 0.876 1.26 0.876 1.26 1.77 2.55 0.548 0.797 1.1 1.59 1.66 2.41 0.495 0.717 0.99 1.43 1.5 2.17 1.2 1.93 1.2 1.93 2.2 4.93 1.92 1.17 1.92 1.17 4 2 0.66 0.33 1.32 0.66 2 1-0.00277-0.956-0.00553-1.91-0.00838-2.9-0.0665-23.2-0.116-46.5-0.147-69.7-0.0155-11.2-0.0366-22.5-0.0709-33.7-0.0299-9.79-0.0492-19.6-0.0559-29.4-0.00392-5.19-0.0132-10.4-0.0349-15.6-0.0203-4.88-0.0267-9.76-0.0221-14.6-8.28e-4 -1.79-0.00683-3.59-0.0183-5.38-0.0149-2.44-0.0114-4.88-0.00315-7.33-0.00874-0.715-0.0175-1.43-0.0265-2.17 0.026-2.85 0.0801-4.8 1.69-7.2 2.89-1.81 6.09-1.44 9.39-1.39 1.12 0.00281 1.12 0.00281 2.27 0.00568 1.58 0.00672 3.16 0.0206 4.74 0.0412 2.43 0.0312 4.85 0.041 7.27 0.0469 1.53 0.00917 3.07 0.0195 4.6 0.0312 1.09 0.00637 1.09 0.00637 2.21 0.0129 5.1 0.0731 5.1 0.0731 6.22 1.19 0.0966 1.42 0.124 2.84 0.123 4.26 0.00199 0.925 0.00398 1.85 0.00603 2.8-0.00291 1.03-0.00583 2.06-0.00883 3.12 0.00128 1.62 0.00128 1.62 0.00259 3.28 0.00166 3.66-0.00387 7.32-0.00932 11-2.82e-4 2.61-1.24e-4 5.22 4.43e-4 7.83 5.25e-4 5.64-0.00262 11.3-0.00824 16.9-0.00811 8.15-0.0107 16.3-0.012 24.4-0.00219 13.2-0.00885 26.4-0.0183 39.7-0.00917 12.8-0.0163 25.7-0.0205 38.5-2.63e-4 0.791-5.25e-4 1.58-7.96e-4 2.4-0.0013 3.97-0.00257 7.94-0.00381 11.9-0.0104 33-0.028 65.9-0.0503 98.9-6.69 0.0764-13.4 0.129-20.1 0.165-2.27 0.015-4.55 0.0355-6.82 0.0615-3.28 0.0366-6.55 0.0535-9.83 0.0667-1.01 0.0155-2.02 0.031-3.06 0.0469-10.8 0.00255-19.3-3.79-27.2-11.2-5.4-5.77-9.71-12.3-14.1-18.9-2.91-4.32-5.91-8.57-8.92-12.8-3.88-5.47-7.71-11-11.5-16.5-5.75-8.39-11.6-16.7-17.5-25-7.36-10.4-14.7-20.8-21.9-31.3-10.1-14.6-20.3-29.1-30.6-43.6-1.54-2.18-3.08-4.37-4.62-6.55-2.95-4.19-5.91-8.37-8.87-12.6-0.419-0.592-0.837-1.18-1.27-1.79-1.11-1.57-2.23-3.14-3.36-4.71-0.611-0.856-1.22-1.71-1.85-2.59-1.39-2.02-1.39-2.02-3.52-2.91v190h-36c-2.43-2.43-2.25-3-2.25-6.31-0.00583-0.911-0.0117-1.82-0.0177-2.76 0.00378-1.01 0.00756-2.02 0.0115-3.05-0.00383-1.07-0.00765-2.13-0.0116-3.23-0.0104-3.59-0.00633-7.19-0.00237-10.8-0.00434-2.57-0.00953-5.13-0.0155-7.7-0.0128-6.26-0.0145-12.5-0.0122-18.8 0.00178-5.09 3.95e-5 -10.2-0.00422-15.3-5.95e-4 -0.723-0.00119-1.45-0.0018-2.19-0.00121-1.47-0.00243-2.94-0.00364-4.41-0.0109-13.8-0.00871-27.6-0.00262-41.4 0.00517-12.6-0.00609-25.2-0.0251-37.9-0.0194-13-0.0276-25.9-0.0239-38.9 0.00192-7.28-6.09e-4 -14.6-0.0147-21.8-0.0131-6.84-0.0107-13.7 0.00241-20.5 0.00238-2.52-4.08e-4 -5.03-0.00862-7.55-0.0104-3.42-0.00244-6.85 0.0103-10.3-0.00737-1.01-0.0147-2.01-0.0223-3.05 0.00721-0.914 0.0144-1.83 0.0218-2.77-5.5e-5 -0.791-1.1e-4 -1.58-1.67e-4 -2.4 0.777-4.24 3.4-5.42 7.41-5.42z" fill="#003C7A"/>
<path transform="translate(516 863)" d="m0 0c0.934 0.00143 1.87 0.00285 2.83 0.00432 1.06-0.00308 2.12-0.00615 3.21-0.00932 1.72 0.0108 1.72 0.0108 3.47 0.0218 1.17 4.58e-4 2.34 9.16e-4 3.55 0.00139 2.48 0.00303 4.96 0.0109 7.44 0.0233 3.81 0.0183 7.62 0.0205 11.4 0.0203 2.4 0.00492 4.81 0.0107 7.21 0.0176 1.15 0.00111 2.3 0.00223 3.48 0.00337 1.58 0.00957 1.58 0.00957 3.2 0.0193 1.4 0.00572 1.4 0.00572 2.83 0.0116 2.12 0.134 2.12 0.134 3.12 1.13 0.105 2.3 0.138 4.6 0.145 6.9 0.00529 1.1 0.00529 1.1 0.0107 2.21 0.0107 2.47 0.0144 4.93 0.0181 7.4 0.0063 1.76 0.0131 3.52 0.0203 5.28 0.0147 3.8 0.0264 7.61 0.0359 11.4 0.0154 6.02 0.0394 12 0.0649 18.1 0.0712 17.1 0.131 34.3 0.182 51.4 0.0284 9.45 0.0638 18.9 0.107 28.4 0.0266 5.98 0.0446 12 0.056 17.9 0.00919 3.74 0.0266 7.48 0.0462 11.2 0.00741 1.72 0.0116 3.44 0.012 5.16 0.00957 20.6 1.73 42.8 16.7 58.5 1.17 1.08 2.36 2.15 3.56 3.19 0.764 0.675 0.764 0.675 1.54 1.36 13.5 10.8 32.9 12.1 49.5 10.4 13.2-1.73 25-6.77 34-16.8 13.8-18.3 14.1-38.7 14.2-60.7 0.00632-1.75 0.0131-3.5 0.0203-5.26 0.0146-3.75 0.0263-7.5 0.0359-11.2 0.0155-5.92 0.0395-11.8 0.0649-17.8 0.071-16.8 0.131-33.7 0.182-50.5 0.0283-9.32 0.0636-18.6 0.107-28 0.0268-5.89 0.0447-11.8 0.056-17.7 0.0091-3.65 0.0264-7.31 0.0462-11 0.0075-1.7 0.0116-3.4 0.012-5.1 0.00108-2.31 0.0143-4.62 0.0306-6.93 0.00423-1.3 0.00846-2.59 0.0128-3.92 0.259-2.99 0.259-2.99 2.26-4.99 2.2-0.254 2.2-0.254 4.97-0.259 1.55-0.00946 1.55-0.00946 3.13-0.0191 1.68 0.00607 1.68 0.00607 3.4 0.0123 1.72-0.00287 1.72-0.00287 3.47-0.0058 2.43-0.00136 4.86 0.00234 7.28 0.0107 3.73 0.0107 7.45 1.08e-4 11.2-0.0127 2.35 0.00132 4.71 0.00388 7.06 0.00781 1.12-0.00405 2.24-0.0081 3.4-0.0123 1.03 0.0063 2.07 0.0126 3.13 0.0191 1.37 0.00239 1.37 0.00239 2.77 0.00482 2.2 0.254 2.2 0.254 4.2 2.25 0.249 2.84 0.249 2.84 0.247 6.55 0.00241 0.681 0.00483 1.36 0.00732 2.06 0.00566 2.29-0.00304 4.59-0.0116 6.88 0.00107 1.64 0.00301 3.28 0.00575 4.92 0.00486 4.47-0.00283 8.94-0.013 13.4-0.00878 4.69-0.00702 9.39-0.00664 14.1-9.38e-4 7.9-0.00963 15.8-0.0233 23.7-0.0156 9.09-0.021 18.2-0.0203 27.3 6.81e-4 9.71-0.0063 19.4-0.0154 29.1-0.00211 2.77-0.00284 5.55-0.00324 8.32-0.0228 80.8-0.0228 80.8-25.2 107-0.625 0.699-1.25 1.4-1.89 2.12-19.4 20.9-51.3 26.4-78.5 27.6-36.7 1.25-72.8-3.91-102-28.6-19-18.2-25.5-44.1-26.3-69.7-0.0938-4.65-0.0855-9.3-0.0732-14-0.00272-1.76-0.00629-3.53-0.0106-5.29-0.00901-4.72-0.00563-9.45 7.58e-4 -14.2 0.00511-4.96 3.56e-4 -9.92-0.00277-14.9-0.00362-8.31 0.00111-16.6 0.0107-24.9 0.0109-9.61 0.00731-19.2-0.00365-28.8-0.00906-8.27-0.0104-16.5-0.00512-24.8 0.00312-4.93 0.00353-9.87-0.00307-14.8-0.00576-4.62-0.00181-9.25 0.00979-13.9 0.00265-1.7 0.00187-3.4-0.00253-5.1-0.00543-2.31 0.00135-4.62 0.0114-6.93 7.54e-4 -1.29 0.00151-2.59 0.00229-3.92 0.3-3.57 0.814-4.83 4.5-5.24z" fill="#003C7A"/>
<path transform="translate(968,871)" d="m0 0c1 1 1 1 1.11 4.42-1.59e-4 1.52-0.00585 3.04-0.0159 4.55-0.00212 1.2-0.00212 1.2-0.00429 2.42-0.00562 2.56-0.0182 5.12-0.0309 7.67-0.00501 1.73-0.00958 3.46-0.0137 5.19-0.011 4.25-0.0283 8.5-0.0488 12.7-4.71-1.51-8.95-3.45-13.3-5.75-29.6-15.1-65.2-20.7-97.4-11.1-9.34 3.32-16.3 7.34-21.4 16-2.84 6.03-3.01 13.3-1.11 19.6 7.65 17 28.5 24.9 44.8 31.3 1.5 0.604 3 1.21 4.5 1.82 3.65 1.48 7.31 2.94 11 4.4 26.1 10.4 26.1 10.4 38.2 16.8 1.2 0.635 2.4 1.26 3.61 1.88 20.1 10.3 37.7 27.1 45 48.8 6.38 19.7 5.32 43.5-4 62.2-3.55 6.08-7.81 11.1-12.8 16.1-0.92 0.936-0.92 0.936-1.86 1.89-24 22.7-61 25.5-92.2 25.4-0.992-0.00182-1.98-0.00365-3-0.00552-14.8-0.0459-29.3-0.463-43.9-3.31-0.927-0.177-1.85-0.354-2.81-0.536-9.88-1.94-19.6-4.4-29.1-7.53-1.07-0.35-1.07-0.35-2.17-0.706-4.81-1.65-8.27-3.59-12.9-6.23v-41c4-1 4-1 5.87-0.199 0.957 0.642 0.957 0.642 1.93 1.3 0.722 0.469 1.44 0.938 2.19 1.42 0.767 0.509 1.53 1.02 2.32 1.54 8 5.1 15.7 8.85 24.7 11.9 0.994 0.365 1.99 0.73 3.01 1.11 16.6 5.67 33.6 7.28 51 7.33 1.1 0.00912 1.1 0.00912 2.22 0.0184 17.4 0.0945 35.9-1.86 48.9-14.5 6.35-6.82 8.2-13.8 8.15-23 0.0161-0.673 0.0322-1.35 0.0488-2.04 0.00635-6.58-2.18-11.8-6.11-17-0.449-0.61-0.897-1.22-1.36-1.85-4.65-5.14-9.9-9.07-16-12.3-1.07-0.563-1.07-0.563-2.16-1.14-10.6-5.35-21.8-9.18-32.9-13.3-48-17.7-48-17.7-65.8-33.4-0.973-0.839-1.95-1.68-2.95-2.54-12.8-11.8-19.4-27.4-20.4-44.8-0.667-20 3.61-36.8 16.9-52.2 38.4-40 125-38.2 170-13.5z" fill="#003C7A"/>
<path transform="translate(671 447)" d="m0 0c1.56 0.0115 3.13 0.0213 4.69 0.0293 7.3 0.0589 14.5 0.263 21.7 1.28 0.33 1.65 0.66 3.3 1 5-10.4 0.105-20.6 0.0247-31-1v2c-0.99-0.0412-1.98-0.0825-3-0.125-4.27 0-7.92 0.86-12 2.12-0.33 0.66-0.66 1.32-1 2l-2-1c-0.33 0.66-0.66 1.32-1 2-0.99 0.33-1.98 0.66-3 1-2.85 5.18-3.75 9.11-3 15 2.6 5 5.33 6.39 10.6 8.15 8.29 2.43 16.2 2.33 24.8 2.16 1.5-0.0115 3-0.0213 4.5-0.0293 18.3-0.00609 18.3-0.00609 36.3-3.16 1.33-0.36 2.66-0.719 3.99-1.08 1.26-0.345 2.52-0.691 3.82-1.05 3.25-0.773 6.49-1.54 9.74-2.29 2.43-0.574 2.43-0.574 4.26-2.71 2.27-0.686 2.27-0.686 5.09-1.29 1.01-0.219 2.03-0.438 3.07-0.664 1.06-0.222 2.12-0.443 3.22-0.672 1.58-0.344 1.58-0.344 3.2-0.695 4.27-0.909 8.05-1.68 12.4-1.68 0.963-0.0348 1.93-0.0696 2.92-0.105 15-0.376 15-0.376 20.9 4.62 5.69 6.2 7.79 12.5 7.5 20.9-0.71 6.84-4.05 10.9-8.65 15.6-7.37 5.6-15.3 7.99-24.3 9.68-1.05 0.208-2.09 0.416-3.17 0.63-7.08 1.38-14.2 2.51-21.3 3.32-2.36 0.3-4.53 0.757-6.83 1.36 0.473 3.46 0.955 6.92 1.44 10.4 0.135 0.985 0.269 1.97 0.408 2.98 0.132 0.941 0.264 1.88 0.4 2.85 0.181 1.3 0.181 1.3 0.365 2.63 0.292 2.2 0.292 2.2 1.39 4.15 0.0505 2.58 0.0426 5.14-0.00781 7.72-0.0175 1.59-0.0344 3.18-0.0508 4.77-0.0307 2.5-0.066 4.99-0.113 7.49-0.299 13.3-0.299 13.3 3.17 26 0.454 1.09 0.908 2.19 1.38 3.31 2.46 4.07 5.46 6.89 9.38 9.56 2.25 2.12 2.25 2.12 3.15 5.27 0.132 4.99-1.42 7.48-4.02 11.6-0.844 1.42-1.69 2.83-2.52 4.25-0.408 0.685-0.817 1.37-1.24 2.07-3.45 5.94-5.91 12.3-8.3 18.7-2.41 6.34-5.07 12.6-7.81 18.8-0.415 0.965-0.831 1.93-1.26 2.92-3.95 8.8-3.95 8.8-8.74 11.5-3.27 1.2-3.27 1.2-6.81 2.12-1.23 0.327-2.47 0.655-3.74 0.992-1.14 0.291-2.28 0.583-3.45 0.883-0.819 0.229-1.64 0.459-2.48 0.695-4.5 1.24-9.18 2.48-13.5 0.305-0.625-3.06-0.625-3.06-1-6-1.65 0.33-3.3 0.66-5 1-0.247-1.28-0.495-2.56-0.75-3.88-0.77-3.39-0.77-3.39-3.38-5.62-0.619-0.165-1.24-0.33-1.88-0.5 0.194-3.49 0.721-4.74 3.32-7.14 5.41-3.42 12.4-2.33 18.5-2.26 2.79-0.0305 5.4-0.0946 8.15-0.6 2.23-2.11 2.23-2.11 3-5 0.582-1.15 0.582-1.15 1.18-2.33 5.28-11.5 9.84-23.3 12.8-35.7h-2c-1.56-1.77-1.56-1.77-3.44-4.25-3.17-4.07-6.48-7.92-10-11.7-10.4-11.2-19.7-23-27.1-36.4-3.25-5.72-7.4-11.7-13.4-14.7v-2c-1.32 0.33-2.64 0.66-4 1 0.33 2.97 0.66 5.94 1 9-9.54 3.37-19.2 6.22-28.9 8.9-7.26 2.01-14.5 4.09-21.7 6.21-1.39 0.409-1.39 0.409-2.81 0.826-4.68 1.38-9.36 2.76-14 4.15-1.73 0.511-3.47 1.02-5.2 1.53-0.807 0.24-1.61 0.481-2.45 0.728-5.61 1.65-5.61 1.65-7.84 1.65 0.213 1.31 0.213 1.31 0.43 2.64 1.19 9.67-0.316 15.2-5.43 23.4-0.616 1.03-1.23 2.05-1.87 3.11-1.66 2.74-3.35 5.45-5.05 8.16-5.26 8.44-10.3 17-15.2 25.7-1.54 2.72-3.1 5.41-4.73 8.07-2.98 4.88-5.42 9.52-7.27 14.9-3.34 9.59-3.34 9.59-8.64 12.4-4.94 1.86-10 2.88-15.2 3.69-0.781 0.179-1.56 0.358-2.37 0.543-3.19 0.553-6.21 0.552-9.45 0.52-1.16-0.00902-2.32-0.018-3.52-0.0273-0.88-0.0116-1.76-0.0232-2.67-0.0352-0.66-1.98-1.32-3.96-2-6h-5c-0.103-1.11-0.206-2.23-0.312-3.38-0.227-1.2-0.454-2.39-0.688-3.62-0.99-0.66-1.98-1.32-3-2 0.25-3.38 0.25-3.38 1-7 3.11-2.23 5.9-2.24 9.64-2.2 1.07 0.00645 2.14 0.0129 3.24 0.0195l3.37 0.0508c1.13 0.00902 2.25 0.018 3.41 0.0273 2.78 0.0235 5.56 0.0564 8.34 0.0977 4.98-8.41 8.68-17.2 10.5-26.8 0.492-2.32 1.17-4.52 1.89-6.78 1.35-4.26 2.06-8.46 2.75-12.9 1.49-7.72 4.65-11.8 9.81-17.5 7.46-9.08 9.42-16.6 10-28 4.28 0.799 5.95 2.95 9 6 2.17 0.861 2.17 0.861 4 1 0.289-0.866 0.577-1.73 0.875-2.62 0.666-2 1.37-3.98 2.16-5.94 1.3-4.61 1.43-9.05 1.59-13.8 0.0387-0.927 0.0773-1.85 0.117-2.81 0.0937-2.27 0.179-4.54 0.258-6.82 5.06 0.747 9.26 2.12 14 4-0.165-1.15-0.33-2.31-0.5-3.5-0.0343-7.26 4.17-13.3 7.49-19.5 3.29-6.39 5.79-13.1 8.01-20 5.86-1.29 10.6-0.727 16.3 1 3.83 1.04 7.42 1.45 11.4 1.75 2.33 0.246 2.33 0.246 4.35 0.773 2.26 0.538 4.23 0.535 6.55 0.473 2.94-0.0794 4.58 0.0489 7.44 1 1.53 0.0923 3.06 0.131 4.6 0.133 1.33 0.00193 1.33 0.00193 2.68 0.00391 0.92-0.00387 1.84-0.00773 2.79-0.0117 0.924 0.00387 1.85 0.00773 2.8 0.0117 0.882-0.00129 1.76-0.00258 2.67-0.00391 0.808-0.00113 1.62-0.00226 2.45-0.00342 2.09-0.00275 2.09-0.00275 4.02-1.13 4.84-0.161 9.23 0.0457 14 1v-2c4.68-0.0247 9.36-0.0428 14-0.0549 1.59-0.00504 3.19-0.0119 4.78-0.0205 2.29-0.0121 4.57-0.0178 6.86-0.0222 0.717-0.00516 1.43-0.0103 2.17-0.0156 1.72-1.96e-4 3.43 0.0514 5.14 0.113 0.33 0.33 0.66 0.66 1 1 7.66 1.5 15.4 1.54 23 0 1.42-0.0181 2.83 0.00221 4.25 0.0625 4.76 0.0639 9.2-0.671 13.8-2.06 0.33-0.33 0.66-0.66 1-1 1.13-0.103 2.27-0.206 3.44-0.312 7.4-0.875 14.8-3.71 20.3-8.86 2.59-3.66 2.86-7.47 2.29-11.8-1.39-3.84-3.45-6.12-6.99-8.13-10.2-4.02-20-0.17-29.8 2.87-4.3 1.32-8.64 2.39-13 3.44-2.44 0.634-4.81 1.32-7.21 2.08-8.76 2.75-16.7 4.39-25.9 4.74-1.92 0.176-3.83 0.364-5.75 0.562-3.46 0.329-6.84 0.476-10.3 0.438-3.72-0.293-3.72-0.293-5.94 1-2.53 0.0977-5.03 0.139-7.56 0.125-0.698 0.00387-1.4 0.00773-2.12 0.0117-5.2-0.0101-5.2-0.0101-6.32-1.14-3.06-0.449-6.12-0.817-9.19-1.16-6.09-0.739-11.1-1.94-16-5.71-0.654-0.492-1.31-0.985-1.98-1.49-3.85-3.43-5.64-6.52-6.11-11.7-0.217-7.7-0.0506-13.1 5.27-18.9 8.83-9.08 20.8-8.53 32.6-8.31z" fill="#E87D08"/>
<path transform="translate(505 263)" d="m0 0c8.06 2.25 14.7 1.59 22.5-1.04 9.56-2.94 19.3-3.15 29.3-3.09 2.18 0.0107 4.36 7.4e-5 6.54-0.0127 25.5-0.0272 25.5-0.0272 31.9 4.27 0.432 2.62 0.432 2.62 0.512 6.09 0.027 0.989 0.027 0.989 0.0545 2 0.0564 2.28 0.0892 4.57 0.121 6.85 0.0334 1.65 0.0672 3.29 0.101 4.94 0.574 31.4 0.293 62.8 0.211 94.1-2.73-0.154-5.46-0.309-8.2-0.466-0.77-0.0431-1.54-0.0862-2.33-0.131-3.79-0.219-7.55-0.47-11.3-0.95-17.8-2.17-37.2-1.2-54.1 4.91-6.73 2.13-12.6 0.0378-19.1-1.79-20-5.5-40.7-4.4-61-1.55-0.999 0.139-2 0.278-3.03 0.421-0.884 0.131-1.77 0.262-2.68 0.397-2.14 0.162-2.14 0.162-4.14-0.838-0.0467-14.7-0.082-29.4-0.104-44.1-0.0103-6.82-0.0244-13.6-0.0473-20.5-0.022-6.58-0.0337-13.2-0.0389-19.7-0.00371-2.52-0.0109-5.03-0.0217-7.55-0.0144-3.51-0.0165-7.03-0.0156-10.5-0.00719-1.05-0.0144-2.1-0.0218-3.18 0.00275-0.954 0.0055-1.91 0.00833-2.89-0.00184-0.831-0.00369-1.66-0.00559-2.52 0.246-2.01 0.246-2.01 2.25-4.01 22.5-5.88 50.5-5.36 72.8 0.875z" fill="#FDFDFD"/>
<path transform="translate(746 260)" d="m0 0c9.79 8.38 15.7 19.1 17.5 31.7 0.923 5.56 1.9 8.04 6.44 11.4 0.886 0.597 1.77 1.19 2.68 1.81 8.62 6.31 14.2 18.7 16.6 28.9 0.289 2.92 0.334 5.81 0.312 8.75-0.00564 0.793-0.0113 1.59-0.0171 2.4-0.283 13.7-5.51 25.3-15.4 34.9-11.6 9.69-24.9 13.2-39.9 11.9-5.53-1.29-10.8-3.12-16.1-5.24-3.42-0.889-4.49-0.548-7.6 0.992-11.5 5.09-24.6 6.01-36.7 2.29-4.61-1.8-8.6-4.22-12.7-7.04-0.87-0.599-1.74-1.2-2.64-1.82-6.2-4.59-9.88-9.34-13.4-16.2-0.577-1.01-1.15-2.02-1.75-3.06-5.08-11.9-4.36-24.4 0.191-36.3 4.6-10.6 11-18.2 20.6-24.6h2c-0.124-1.83-0.124-1.83-0.25-3.69 0.0608-12.9 6.41-24.4 15.1-33.6 18.5-17.5 44.7-19.1 65-3.55z" fill="#E97E08"/>
<path transform="translate(667,452)" d="m0 0c7.19-0.111 14.4-0.0469 21.6 0.25 0.678 0.0141 1.36 0.0282 2.05 0.0427 3.46 0.174 5.14 0.509 7.85 2.75 0.507 0.645 1.01 1.29 1.54 1.95-1 1-1 1-4.73 1.07-1.67-0.0206-3.34-0.0455-5.02-0.0737-1.82-0.0175-3.65-0.0344-5.47-0.0508-2.88-0.0308-5.76-0.0661-8.64-0.113-2.78-0.0427-5.55-0.0659-8.33-0.0864-0.847-0.0186-1.69-0.0372-2.57-0.0564-5.78-0.0244-11 0.754-16.2 3.31-3.05 3.27-3.89 5.21-4.5 9.62 0.235 3.37 0.235 3.37 2.12 5.62 14.3 10.5 41.9 6.96 58.8 4.57 10-1.64 19.7-4 29.3-7.12 4.47-1.41 8.98-2.67 13.5-3.96 0.894-0.258 1.79-0.517 2.71-0.783 12-3.45 25.8-5.53 37.7-0.432 6.33 3.91 10.5 9.27 12.4 16.5 0.77 8.22 1.23 16.2-4 23-0.694 0.901-0.694 0.901-1.4 1.82-13.3 15.1-37 16.1-55.6 18.2-1.12 3.36-0.833 4.6-0.0955 8 1.12 5.71 1.47 11.2 1.62 17 0.0707 2.07 0.142 4.13 0.213 6.2 0.101 3.2 0.198 6.41 0.289 9.61 0.092 3.13 0.201 6.25 0.311 9.38 0.033 1.42 0.033 1.42 0.0666 2.87 0.301 8.17 1.64 15.9 7.59 21.9 2.08 1.64 4.12 3.15 6.31 4.62 0.543 0.382 1.09 0.763 1.65 1.16 2.86 1.96 5.6 3.49 8.83 4.68 3.21 1.54 3.21 1.54 4.64 4.23 0.186 0.763 0.371 1.53 0.562 2.31-0.855 0.398-1.71 0.797-2.59 1.21-1.1 0.53-2.21 1.06-3.35 1.61-1.1 0.522-2.2 1.04-3.34 1.58-3.01 1.37-3.01 1.37-3.72 4.61 0.66 0.66 1.32 1.32 2 2v4c-0.953 0.485-1.91 0.969-2.89 1.47-1.27 0.676-2.53 1.35-3.8 2.03-0.626 0.315-1.25 0.629-1.9 0.953-10.2 5.54-13.1 17.5-17.3 27.6-0.765 1.86-1.54 3.71-2.31 5.57-0.45 1.1-0.9 2.19-1.36 3.32-2.54 5.17-5.02 8.28-10.5 10.3-26.5 8.84-26.5 8.84-39 3.66h-3c-0.33-2.31-0.66-4.62-1-7h-6v-8h-4c0.0977-2.23 0.0977-2.23 1-5 2.16-1.65 4.09-2.94 6.44-4.25 0.599-0.351 1.2-0.701 1.81-1.06 4.33-2.52 6.99-3.81 12-4 1.55-0.0628 1.55-0.0628 3.12-0.127 1.08-0.0393 2.16-0.0786 3.27-0.119 1.09-0.0432 2.18-0.0864 3.3-0.131 2.69-0.106 5.39-0.208 8.08-0.307 10.4-19.1 10.4-19.1 13-40-1.94-3.02-4.49-5.45-7-8-2.03-2.18-4.05-4.37-6.06-6.56-1.04-1.12-2.08-2.24-3.11-3.37-8.82-9.57-8.82-9.57-8.82-12.1-3.37 1.12-3.62 1.45-5.19 4.44-2.23 4.82-2.82 9.34-1.81 14.6 1.85 3.76 4.43 5.72 8.19 7.56 3.42 1.75 3.61 2.93 4.81 6.44-1.6 0.815-3.21 1.63-4.81 2.44-1.34 0.679-1.34 0.679-2.71 1.37-2.48 1.19-2.48 1.19-5.48 2.19v5h2c-0.148 1.77-0.148 1.77-1 4-2.48 1.82-2.48 1.82-5.62 3.69-9.7 6.26-14 14.1-18.8 24.3-2.27 4.37-3.61 5.7-8.31 7.36-1.48 0.425-2.97 0.84-4.46 1.25-1.1 0.312-1.1 0.312-2.21 0.631-2.2 0.62-4.4 1.22-6.6 1.81-0.693 0.193-1.39 0.387-2.1 0.586-4.26 1.14-8.18 1.71-12.6 1.73-1.08 0.0168-2.15 0.0335-3.26 0.0508-3.42-0.407-5.22-1.47-8.05-3.36-2.69-0.707-2.69-0.707-5-1v-5c-2.97-0.99-2.97-0.99-6-2 0.66-1.65 1.32-3.3 2-5-1.98-0.66-3.96-1.32-6-2 0.0703-1.74 0.0703-1.74 1-4 2.29-1.58 4.44-2.89 6.88-4.19 0.638-0.355 1.28-0.71 1.93-1.08 4.67-2.57 8.22-3.85 13.5-4.05 1.54-0.0628 1.54-0.0628 3.12-0.127 1.07-0.0393 2.14-0.0786 3.25-0.119 1.08-0.0432 2.17-0.0864 3.28-0.131 2.68-0.106 5.35-0.208 8.03-0.307 1.73-3.69 3.44-7.39 5.13-11.1 0.577-1.26 1.16-2.51 1.75-3.76 4.81-9.68 4.81-9.68 5.13-20.1-1.61-2.92-1.61-2.92-4-5.38-1.23-1.4-1.23-1.4-2.48-2.82-0.83-0.924-1.66-1.85-2.52-2.8-4.81-5.77-9.17-11.5-13-18-1.65 0.33-3.3 0.66-5 1v9c-0.727 0.00258-1.45 0.00516-2.2 0.00781-8.47 0.326-14.5 2.76-21.8 6.99 0.217 0.835 0.217 0.835 0.438 1.69 0.59 2.43 1.09 4.86 1.56 7.31-0.88 0.326-1.76 0.652-2.67 0.988-1.16 0.437-2.32 0.874-3.52 1.32-1.72 0.644-1.72 0.644-3.48 1.3-3.02 1.26-5.67 2.49-8.33 4.39-0.33 0.99-0.66 1.98-1 3 0.66 0.598 1.32 1.2 2 1.81 2 2.19 2 2.19 2 5.19-1.4 0.692-1.4 0.692-2.82 1.4-14.6 7.39-25.5 14.6-33.2 29.6-0.312 0.594-0.623 1.19-0.944 1.8-3.28 6.28-6.4 12.6-8.94 19.2-2.91 5.12-6.1 7.19-11.7 8.73-2.14 0.513-4.29 1.01-6.44 1.48-1.08 0.255-2.16 0.51-3.27 0.773-13.3 3.13-13.3 3.13-18.8 3.23-1.25 0.0387-1.25 0.0387-2.54 0.0781-2.9-0.396-4.14-1.55-6.4-3.33-2.7 0.222-2.7 0.222-5 1-1.11-3.33-1.54-6.53-2-10-1.65 0.33-3.3 0.66-5 1v-8h-4c0.164-2.27 0.164-2.27 1-5 11.8-9.87 25.5-9.31 40-9 2.43-7.06 4.5-14.2 6.44-21.4 0.305-1.13 0.61-2.26 0.924-3.43 2.57-9.67 4.73-19.4 6.64-29.2l2 2 3-3c-0.138 0.681-0.276 1.36-0.418 2.06-0.412 2.08-0.809 4.16-1.2 6.25-1.41 7.46-3.15 14.6-5.49 21.8-0.714 2.26-1.32 4.47-1.84 6.78-4.48 18.6-4.48 18.6-10.1 23.1-4.02 0.593-7.95 0.422-12 0.25-2.17-0.0613-4.33-0.119-6.5-0.172-0.959-0.0371-1.92-0.0741-2.91-0.112-2.39 0.0316-4.31 0.339-6.59 1.03-0.25 3.42-0.25 3.42 0 7 0.99 0.66 1.98 1.32 3 2 0.188 3.62 0.188 3.62 0 7 1.65-0.33 3.3-0.66 5-1 0.66 1.98 1.32 3.96 2 6 11.8 0.339 26.7 0.209 36.7-7.24 1.87-2.47 2.63-5.02 3.64-7.95 3.97-10.6 10-20.1 15.8-29.7 1.79-2.99 3.57-5.99 5.34-9 0.555-0.943 1.11-1.89 1.68-2.86 1.09-1.85 2.18-3.7 3.26-5.55 2.4-4.06 4.81-8.1 7.35-12.1 4.9-7.73 8.35-13.5 6.6-23-0.186-1.3-0.186-1.3-0.375-2.62 2.12-2.79 4.27-3.63 7.58-4.59 0.931-0.275 1.86-0.549 2.82-0.832 1.01-0.287 2.02-0.575 3.06-0.871 1.05-0.308 2.11-0.615 3.19-0.932 3.42-0.997 6.85-1.98 10.3-2.96 2.33-0.676 4.67-1.35 7-2.03 5.67-1.65 11.4-3.28 17-4.91 3.48-1 6.96-2.01 10.4-3.02 3.22-0.934 6.44-1.86 9.66-2.79 1.12-0.323 2.24-0.646 3.39-0.979 0.996-0.284 1.99-0.568 3.02-0.861 0.838-0.24 1.68-0.479 2.54-0.726 1.99-0.496 1.99-0.496 3.99-0.496-0.99-4.46-0.99-4.46-2-9 2.48-0.495 2.48-0.495 5-1v2c0.893 0.416 0.893 0.416 1.8 0.84 7.67 4.05 11.4 11.6 15.6 18.9 2.9 5.06 5.91 9.76 9.62 14.3 0.687 0.869 1.37 1.74 2.08 2.63 4.04 5.06 8.22 9.74 12.9 14.3 10.2 10.4 10.2 10.4 12.1 16.1h2c-2.55 13.5-6.99 34-17 44-2.26 0.271-2.26 0.271-5.05 0.309-1.01 0.0251-2.02 0.0503-3.06 0.0762-2.12 0.035-4.25 0.0663-6.38 0.0938-1.01 0.0264-2.03 0.0529-3.07 0.0801-0.925 0.0135-1.85 0.0269-2.8 0.0408-3.17 0.48-5.08 1.49-7.65 3.4-0.887 2.59-0.887 2.59-1 5 0.619 0.186 1.24 0.371 1.88 0.562 3.18 2.15 3.32 4.81 4.12 8.44 0.639-0.186 1.28-0.371 1.94-0.562 1.02-0.217 1.02-0.217 2.06-0.438 1 1 1 1 1.06 4.06-0.0206 0.969-0.0412 1.94-0.0625 2.94 6.15 0.259 11.2-0.572 17.1-2.31 0.764-0.213 1.53-0.427 2.31-0.646 2.22-0.637 4.42-1.32 6.62-2.04 0.659-0.206 1.32-0.412 2-0.624 3.3-1.19 4.89-2.22 6.94-5.1 0.496-1.1 0.993-2.2 1.5-3.34 0.419-0.908 0.419-0.908 0.847-1.84 0.604-1.32 1.2-2.64 1.78-3.97 0.981-2.23 1.99-4.45 3.01-6.67 2.85-6.26 5.67-12.5 7.86-19 3.06-8.87 7.86-17.6 13.1-25.4 0.31-3.43 0.31-3.43-1-7-1.89-1.7-3.89-3.05-6-4.48-5.11-3.89-7.08-10.6-9-16.5-0.176-0.53-0.353-1.06-0.534-1.61-0.685-3.52-0.567-7.02-0.528-10.6 0.00568-1.18 0.00568-1.18 0.0115-2.39 0.0122-2.51 0.0308-5.03 0.051-7.54 0.0265-3.32 0.0465-6.63 0.0625-9.95 0.0083-0.765 0.0166-1.53 0.0251-2.32 0.103-3.93 0.103-3.93-1.09-7.61-0.689-3.48-1.17-6.99-1.69-10.5-0.155-0.976-0.311-1.95-0.471-2.96-0.137-0.932-0.275-1.86-0.416-2.82-0.13-0.857-0.26-1.71-0.393-2.6-0.0107-0.701-0.0214-1.4-0.0325-2.12 2.4-2.4 3.13-2.29 6.41-2.51 9.62-0.791 19.1-2.71 28.6-4.49 1.27-0.237 2.54-0.474 3.84-0.719 10.2-2.22 18.2-7.55 24.2-16.3 2.33-6.74 1.83-14.1-1.19-20.4-2.84-5.02-5.45-7.75-11-9.65-4.03-0.964-7.5-1.11-11.6-1.04-1.31 0.018-2.61 0.0361-3.96 0.0547-1.6 0.0348-1.6 0.0348-3.23 0.0703h-2c-3.79 0.69-7.55 1.51-11.3 2.31-1.05 0.213-2.09 0.427-3.17 0.646-1.52 0.324-1.52 0.324-3.07 0.654-0.925 0.194-1.85 0.388-2.8 0.587-2.9 0.876-5.09 2.2-7.65 3.8-4.93 1.58-9.97 2.78-15 4-0.883 0.219-1.77 0.438-2.68 0.664-12.2 2.75-25.2 2.56-37.7 2.63-1.51 0.0116-3.01 0.0321-4.52 0.0615-21.8 0.422-21.8 0.422-30.3-6-3.04-2.98-3.77-5.05-4.45-9.29 0.207-2.02 0.207-2.02 0.625-4.06 0.128-0.684 0.255-1.37 0.387-2.07 1.37-4.15 3.13-5.66 6.97-7.8 1.31-0.584 2.63-1.15 3.95-1.69 0.64-0.264 1.28-0.528 1.94-0.799 4.6-1.68 8-1.66 12.7-0.638v-2z" fill="#003C79"/>
<path transform="translate(588,267)" d="m0 0c2.05 2.05 1.19 6.37 1.21 9.19 0.0099 0.858 0.0198 1.72 0.03 2.6 0.0317 2.85 0.0564 5.7 0.0811 8.55 0.0206 1.97 0.0416 3.94 0.063 5.91 0.0553 5.2 0.105 10.4 0.153 15.6 0.0502 5.3 0.106 10.6 0.161 15.9 0.108 10.4 0.209 20.8 0.307 31.2-0.66-0.33-1.32-0.66-2-1-9.13-1.59-18.6-1.28-27.9-1.31-0.821-0.00428-1.64-0.00856-2.49-0.013-11.4-0.0309-21.9 0.619-33 3.55-3.73 0.792-5.98 0.506-9.66-0.223-0.0694-10.8-0.123-21.5-0.155-32.3-0.0157-5-0.0369-10-0.0709-15-0.0325-4.82-0.0505-9.65-0.0583-14.5-0.00555-1.84-0.0164-3.68-0.0326-5.53-0.0217-2.58-0.0248-5.15-0.0234-7.73-0.0108-0.765-0.0216-1.53-0.0327-2.32 0.0302-5.15 0.0302-5.15 1.73-7.57 17.9-11.7 51.7-9.52 71.6-5.07z" fill="#FDFDFD"/>
<path transform="translate(505 263)" d="m0 0c8.06 2.25 14.7 1.59 22.5-1.04 9.56-2.94 19.3-3.15 29.3-3.09 2.18 0.0107 4.36 7.4e-5 6.54-0.0127 25.5-0.0272 25.5-0.0272 31.9 4.27 0.432 2.62 0.432 2.62 0.512 6.09 0.027 0.989 0.027 0.989 0.0545 2 0.0564 2.28 0.0892 4.57 0.121 6.85 0.0334 1.65 0.0672 3.29 0.101 4.94 0.574 31.4 0.293 62.8 0.211 94.1-2.73-0.154-5.46-0.309-8.2-0.466-0.77-0.0431-1.54-0.0862-2.33-0.131-3.79-0.219-7.55-0.47-11.3-0.95-17.8-2.17-37.2-1.2-54.1 4.91-6.73 2.13-12.6 0.0378-19.1-1.79-20-5.5-40.7-4.4-61-1.55-0.999 0.139-2 0.278-3.03 0.421-0.884 0.131-1.77 0.262-2.68 0.397-2.14 0.162-2.14 0.162-4.14-0.838-0.0467-14.7-0.082-29.4-0.104-44.1-0.0103-6.82-0.0244-13.6-0.0473-20.5-0.022-6.58-0.0337-13.2-0.0389-19.7-0.00371-2.52-0.0109-5.03-0.0217-7.55-0.0144-3.51-0.0165-7.03-0.0156-10.5-0.00719-1.05-0.0144-2.1-0.0218-3.18 0.00275-0.954 0.0055-1.91 0.00833-2.89-0.00184-0.831-0.00369-1.66-0.00559-2.52 0.246-2.01 0.246-2.01 2.25-4.01 22.5-5.88 50.5-5.36 72.8 0.875zm-57.7 3c-0.888 0.0783-1.78 0.157-2.69 0.237-4.66 0.325-4.66 0.325-8.37 2.89-0.193 2.68-0.262 5.25-0.243 7.92-0.0019 0.818-0.0038 1.64-0.00575 2.48-0.00371 2.71 7e-3 5.42 0.0182 8.13 0.00119 1.88 0.00165 3.76 0.00139 5.63 0.00157 3.94 0.00986 7.88 0.0233 11.8 0.017 5.06 0.0208 10.1 0.0201 15.2 2.71e-4 3.88 0.00575 7.76 0.013 11.6 0.00319 1.87 0.00516 3.73 0.00589 5.6 0.00216 2.6 0.0109 5.21 0.0216 7.81-4.53e-4 0.779-9.06e-4 1.56-0.00137 2.36-0.3 3.51-0.3 3.51 1.15 6.43 1.45 0.0775 2.89 0.0859 4.34 0.0659 1.39-0.0146 1.39-0.0146 2.81-0.0296 1.52-0.0219 1.52-0.0219 3.07-0.0442 2.15-0.0176 4.3-0.0345 6.46-0.0508 3.39-0.0306 6.77-0.0657 10.2-0.113 13.5-0.178 26 0.347 39.2 3.17 2.33 0.343 4.67 0.678 7 1 0.0694-11 0.123-22.1 0.155-33.1 0.0157-5.12 0.0369-10.2 0.0709-15.4 0.0325-4.94 0.0505-9.88 0.0583-14.8 0.00555-1.89 0.0164-3.77 0.0326-5.66 0.0217-2.64 0.0248-5.28 0.0234-7.92 0.0108-0.784 0.0216-1.57 0.0327-2.38 0.0128-4.12 0.0128-4.12-1.78-7.72-16-10.5-43.6-6.8-61.5-5.17zm68.9 6.12c-1.56 3.12-1.13 6.43-1.11 9.85-1.46e-4 0.81-2.92e-4 1.62-4.43e-4 2.45 6.98e-4 2.68 0.00849 5.37 0.0163 8.05 0.00186 1.86 0.00329 3.72 0.00429 5.57 0.00382 4.9 0.0137 9.79 0.0247 14.7 0.0102 4.99 0.0148 9.99 0.0198 15 0.0107 9.8 0.0278 19.6 0.0488 29.4 4.41 0.874 7.39 0.826 11.8-0.335 11.1-2.9 22-3.04 33.4-2.98 1.21 0.00437 1.21 0.00437 2.45 0.00882 23.1 0.124 23.1 0.124 27.4 2.3-0.33-29-0.66-58.1-1-88-21.5-6.14-52.6-6.51-73 4z" fill="#E97E08"/>
<path transform="translate(534,450)" d="m0 0c1.03 1.31 2.04 2.64 3 4h3c0.763-0.846 1.53-1.69 2.31-2.56 2.69-2.44 2.69-2.44 5.44-2.5 2.64 0.863 4.79 1.83 7.25 3.06 5.21 2.49 10.3 2.48 16 2.53 3.04 0.469 3.04 0.469 4.93 2.22 1.83 3.71 1.7 7.21 1.11 11.2-0.969 1.36-1.96 2.69-3 4 0.292 3.29 1.04 6.11 2.06 9.25-0.101 6.06-4.17 9.37-8.06 13.8-4.17 4.93-6.75 8.3-7 15 0.0825 0.866 0.165 1.73 0.25 2.62-0.25 2.38-0.25 2.38-2.19 5.12-4 2.94-7.14 3.66-12.1 3.25-3.14-0.894-4.38-1.81-7-4-0.938-3.75-0.938-3.75-1-7 1.25-0.819 2.5-1.63 3.75-2.44 0.696-0.452 1.39-0.905 2.11-1.37 2.07-1.15 3.83-1.74 6.14-2.19-0.156-0.918-0.312-1.84-0.473-2.78-2.24-14.1-2.24-14.1-0.527-19.2 2.77-2.71 5.75-4.9 9-7-2.62-1.31-4.64-1.13-7.56-1.12-1.49-0.00387-1.49-0.00387-3-0.00781-2.38-0.142-2.38-0.142-3.43 1.13-0.158 1.85-0.251 3.71-0.316 5.57-0.0628 1.69-0.0628 1.69-0.127 3.41-0.0393 1.18-0.0786 2.37-0.119 3.59-0.0648 1.78-0.0648 1.78-0.131 3.6-0.106 2.95-0.207 5.89-0.307 8.84-7.92 0.495-7.92 0.495-16 1 1.13 0.949 2.27 1.9 3.44 2.88 3.44 2.88 3.44 2.88 4.56 5.12 0.07 1.71 0.0844 3.42 0.0625 5.12-0.00902 0.91-0.018 1.82-0.0273 2.76-0.0116 0.699-0.0232 1.4-0.0352 2.12-3.98 2.19-7.52 2.82-12 2-3.56-1.66-7.2-3.4-9-7 0.0348-0.768 0.0696-1.54 0.105-2.33 0.215-7.65-1.99-11.6-6.98-17-1.08-1.13-2.16-2.27-3.24-3.4-2.66-2.86-4.63-5.46-5.88-9.23 0.801-2.77 0.801-2.77 2.31-5.38 0.491-0.874 0.982-1.75 1.49-2.65 0.396-0.652 0.791-1.3 1.2-1.98h-2c-2.9-3.39-4.01-5.17-3.94-9.69 0.899-3.18 1.32-4.43 3.94-6.31 2.81-1.4 5.3-1.15 8.44-1.25 6.26-0.373 10.7-1.75 16.2-4.79 2.94-1.18 4.43-0.968 7.4 0.0391z" fill="#E97E08"/>
<path transform="translate(739 436)" d="m0 0c7.83 1.76 14.7 1.37 22.6 0.438 0.222 0.803 0.443 1.61 0.672 2.43 1.06 2.79 1.06 2.79 3.72 3.35 0.944 0.0915 1.89 0.183 2.86 0.277 5.49 0.782 9.44 1.98 13 6.53 0.976 1.43 1.87 2.92 2.75 4.41-0.822-0.0464-1.64-0.0928-2.49-0.141-7.91-0.259-7.91-0.259-15.3 2.14-6.71 3.16-14 2.32-21.2 2 0.99 1.42 0.99 1.42 2 2.88 2 3.12 2 3.12 2 5.12-17.1 3.9-37.1 4.35-52.5-5.01-0.748-0.489-0.748-0.489-1.51-0.988 0.99-0.66 1.98-1.32 3-2-1.32-0.66-2.64-1.32-4-2 0.33-0.66 0.66-1.32 1-2h2c-0.33-1.65-0.66-3.3-1-5-6.08-0.0995-12.2-0.172-18.2-0.22-2.07-0.02-4.13-0.0472-6.2-0.082-2.98-0.049-5.97-0.0713-8.95-0.0889-0.911-0.0206-1.82-0.0413-2.76-0.0626-7.85-0.0027-15 2.01-21.3 6.83-4.65 4.77-5.98 9.02-5.94 15.6-0.00773 1.18-0.0155 2.35-0.0234 3.56 0.552 4.76 2.04 7.98 5.31 11.5 5.55 4.39 10.1 6.24 17.1 6.95 0.931 0.0967 1.86 0.193 2.82 0.293 1.75 0.172 3.5 0.327 5.25 0.461 1.93 0.246 1.93 0.246 2.93 1.25 2.49 0.1 4.95 0.139 7.44 0.125 0.694 0.00387 1.39 0.00773 2.1 0.0117 3.86 0.0569 3.86 0.0569 7.46-1.14 3.48-0.0713 6.94 0.00331 10.4 0.0625 3.32-0.0581 6.31-0.484 9.58-1.06 1.94-0.0962 3.87-0.179 5.81-0.25 7.8-0.552 14.8-2.82 22.2-5.16 2.63-0.8 5.28-1.46 7.95-2.09 4.18-1 8.27-2.18 12.4-3.44 18.8-5.73 18.8-5.73 27.6-2.26 3.89 2.26 6.29 5.06 8.05 9.2 0.622 3.69 0.35 6.51-1 10-4.75 6.42-12.5 10.1-20.3 11.4-1.91 0.213-3.82 0.412-5.73 0.609-1.35 0.635-2.68 1.3-4 2-5.1 1.27-10.2 1.04-15.4 0.938-2.59-0.123-2.59-0.123-4.61 1.06-6.05 0.341-12.1 0.164-18-1-0.33-0.33-0.66-0.66-1-1-2.9-0.0482-5.79-0.0422-8.69 0-8.16 0.0679-16.2-0.257-24.3-1v2c-0.987-0.0116-1.97-0.0232-2.99-0.0352-1.28-0.00902-2.56-0.018-3.88-0.0273-1.91-0.0174-1.91-0.0174-3.87-0.0352-3.14-0.134-3.14-0.134-5.26 1.1-1.46 0.0954-2.93 0.131-4.39 0.133-1.31 0.00193-1.31 0.00193-2.65 0.00391-0.915-0.00387-1.83-0.00773-2.77-0.0117-1.35 0.0058-1.35 0.0058-2.74 0.0117-4.3-0.00632-8.25-0.145-12.5-1.14h-3.56c-2.9 0-4.71-0.306-7.44-1-1.46-0.147-2.92-0.27-4.38-0.375-8.73-0.816-17.3-2.73-25.6-5.62 0.66-1.32 1.32-2.64 2-4 0.611 0.182 1.22 0.364 1.85 0.551 26.8 7.37 54.7 6.96 82.2 5.23 10.6-0.657 20.8-0.81 31.5 0.222 11.7 1.14 22.8 0.768 34.4-1 0.872-0.132 1.74-0.264 2.64-0.399 14.1-1.88 14.1-1.88 25.4-9.6 1.29-4.06 0.411-7.05-1.25-10.9-1.9-2.31-2.99-3.06-5.75-4.12-12.6-0.746-25.3 4-37.2 7.56-20.5 6.1-40.4 8.62-61.8 8.63-1.28 0.0122-2.55 0.0245-3.87 0.0371-14.2 0.0218-26.8-1.43-38.1-10.7-4.06-5.21-7.42-10.6-7.27-17.4 1.07-8.44 4.87-15.6 11.3-21.2 8.43-5.98 18.7-6.17 28.7-5.98 1.31 0.0234 1.31 0.0234 2.66 0.0473 3.66 0.0734 7.32 0.157 11 0.28 14.8 0.511 14.8 0.511 27.7-6.34 9.68-4.72 20.2-3.76 30.4-1.44z" fill="#003C7A"/>
<path transform="translate(673 570)" d="m0 0c4.04 0.412 5.89 1.8 9.06 4.31 0.637 0.447 1.27 0.895 1.93 1.36 3.31 2.48 4.88 3.76 5.76 7.89-0.749 4.08-2.03 7.54-3.71 11.3-0.989 2.47-1.53 4.81-1.97 7.43h-2c0.373 0.724 0.745 1.45 1.13 2.2 0.473 0.967 0.946 1.93 1.43 2.93l1.44 2.88c1.19 3.57 0.883 5.37-0.00391 8.99-1.36 2.22-1.36 2.22-3.09 4.4-4.84 6.6-8.09 13.8-11.5 21.2-10.4 22.3-10.4 22.3-15.6 25.2-4.16 1.26-8.3 2.34-12.6 3.26-5.23 1.02-5.23 1.02-10.2 2.88-2.33 0.0402-4.67 0.0432-7 0-0.66-2.31-1.32-4.62-2-7-1.98 0.495-1.98 0.495-4 1-0.33-2.97-0.66-5.94-1-9-1.65-0.33-3.3-0.66-5-1 2.44-6.6 2.44-6.6 4.78-8.28 2.84-0.921 4.58-0.528 7.47 0.156 0.892 0.204 1.78 0.407 2.7 0.617 0.675 0.168 1.35 0.335 2.05 0.508v-2c0.964 0.0206 1.93 0.0412 2.92 0.0625 1.89-0.0309 1.89-0.0309 3.83-0.0625h3.8c3.38-0.62 3.38-0.62 4.64-2.48 1.08-2.13 1.96-4.29 2.82-6.52 0.758-1.69 1.52-3.37 2.29-5.06 0.781-1.79 1.56-3.58 2.34-5.38 0.394-0.89 0.789-1.78 1.2-2.7 3.79-8.14 3.79-8.14 5.18-16.9-1.32-2.69-3.23-4.45-5.44-6.44-1.13-1.11-2.25-2.22-3.37-3.34-0.55-0.541-1.1-1.08-1.67-1.64-3.35-3.47-5.96-7.52-8.53-11.6-0.849-1.31-0.849-1.31-1.71-2.64-1.29-2.36-1.29-2.36-0.785-4.61 1.5-1.75 1.5-1.75 3.5-2.56 4.39-0.274 8.65 0.263 13 0.812-0.495-3.96-0.495-3.96-1-8 5.37-2.69 13-1.84 18.9-2.31z" fill="#E87D08"/>
<path transform="translate(443,458)" d="m0 0c1.09 2.21 1.09 2.21 1.93 4.95 0.317 1.01 0.634 2.01 0.961 3.05 0.487 1.61 0.487 1.61 0.984 3.25 0.702 2.19 1.41 4.38 2.12 6.57 0.343 1.06 0.685 2.13 1.04 3.22 3.3 10 6.33 17.5 15 24 9.85 7.81 15.1 15.5 20 27 0.773 1.69 0.773 1.69 1.56 3.41 2.49 5.59 4.08 10.5 4.44 16.6 3.72 0.201 4.77 0.152 8-2 1.98 0.495 1.98 0.495 4 1 0.33 7.26 0.66 14.5 1 22-9.62 4.12-9.62 4.12-15.5 4.31-1.13 0.0561-1.13 0.0561-2.28 0.113-3.7-0.71-5.29-3.07-7.35-6.09-1.31-2.05-2.56-4.13-3.8-6.21-0.711-1.18-0.711-1.18-1.44-2.38-4.29-7.13-8.5-14.3-12.7-21.5-4.05-6.86-8.23-13.6-12.5-20.3-2.51-3.92-4.95-7.85-7.3-11.9-6.02-10.4-6.02-10.4-14.6-18.7-1.46-1.32-1.46-1.32-2.46-4.76v-2.56c1.32-0.99 2.64-1.98 4-3-0.27-2.44-0.27-2.44-1-5-0.99-0.66-1.98-1.32-3-2 0.875-3.88 0.875-3.88 2-5 2-0.0408 4-0.0425 6 0-0.206-1.11-0.413-2.23-0.625-3.38-0.124-1.2-0.248-2.39-0.375-3.62 3.57-3.57 7.89-3.83 12-1z" fill="#E97E08"/>
<path transform="translate(608 1311)" d="m0 0c1.21 0.959 1.21 0.959 2.44 1.94 0.66-1.32 1.32-2.64 2-4h5c1.16 2.33 1.14 3.71 1.16 6.31 0.00961 0.892 0.0192 1.78 0.0291 2.7 0.00425 0.968 0.0085 1.94 0.0129 2.93 0.0057 0.997 0.0114 1.99 0.0173 3.02 0.00946 2.12 0.016 4.23 0.0198 6.35 0.00965 3.22 0.0406 6.43 0.0723 9.65 0.00654 2.06 0.0118 4.12 0.0156 6.17 0.0123 0.953 0.0247 1.91 0.0374 2.89-0.0226 6.87-0.85 13.4-4.92 19.2-7.65 5.58-18.4 5.17-27.4 3.81-3.55-1.35-3.55-1.35-6-3-0.495-1.48-0.495-1.48-1-3 1.44-2.19 1.44-2.19 3-4 1.09 0.33 2.19 0.66 3.31 1 6.19 1.53 12.7 2.15 18.8-0.188 3.09-2.89 3.88-5.45 4.06-9.62-0.0412-0.722-0.0825-1.44-0.125-2.19-0.857 0.322-1.71 0.645-2.6 0.977-6.39 1.92-14.4 2.58-20.5-0.664-5.21-4.1-8.46-8.38-9.27-15.1-0.108-8.08 0.732-15 6.14-21.3 7.19-6.77 17-9.62 25.8-3.83z" fill="#003C7A"/>
<path transform="translate(711 1310)" d="m0 0c4.95 4.17 8.5 9.55 9.38 16 0.689 8.62 0.178 17.1-5.44 24-4.62 3.61-7.51 4.26-13.4 4.19-1.19-0.00645-2.39-0.0129-3.62-0.0195-3.51-0.168-3.51-0.168-9.51-1.17-0.33 6.27-0.66 12.5-1 19h-8c-1.74-1.74-1.15-4.12-1.16-6.48-0.00961-1.17-0.0192-2.34-0.0291-3.55-0.00425-1.28-0.0085-2.55-0.0129-3.87-0.0057-1.3-0.0114-2.6-0.0173-3.94-0.0105-2.76-0.0164-5.52-0.0198-8.28-0.00548-3.54-0.0295-7.07-0.058-10.6-0.0231-3.37-0.0251-6.74-0.0299-10.1-0.0123-1.27-0.0247-2.54-0.0374-3.85 3e-3 -1.18 6e-3 -2.36 0.00909-3.57-0.00365-1.04-0.00729-2.08-0.011-3.15 0.367-2.59 0.367-2.59 1.64-4.45 1.73-1.14 1.73-1.14 5.73-1.14v2h2c0.33 0.66 0.66 1.32 1 2 0.531-0.277 1.06-0.554 1.61-0.84 1.06-0.543 1.06-0.543 2.14-1.1 0.696-0.36 1.39-0.719 2.11-1.09 5.67-2.58 11-2.17 16.8 0.0273z" fill="#003C7A"/>
<path transform="translate(669 443)" d="m0 0c1.49 0.0129 1.49 0.0129 3 0.0261 2.94 0.0353 5.87 0.0924 8.81 0.161 0.846 0.0193 1.69 0.0387 2.56 0.0586 12.7 0.355 12.7 0.355 15.4 2.48 0.356 0.481 0.712 0.962 1.08 1.46-1 2-1 2-3 3v-2c-6.08-0.0995-12.2-0.172-18.2-0.22-2.07-0.02-4.13-0.0472-6.2-0.082-2.98-0.049-5.97-0.0713-8.95-0.0889-0.911-0.0206-1.82-0.0413-2.76-0.0626-7.85-0.0027-15 2.01-21.3 6.83-4.65 4.77-5.98 9.02-5.94 15.6-0.00773 1.18-0.0155 2.35-0.0234 3.56 0.552 4.76 2.04 7.98 5.31 11.5 5.55 4.39 10.1 6.24 17.1 6.95 0.931 0.0967 1.86 0.193 2.82 0.293 1.75 0.172 3.5 0.327 5.25 0.461 1.93 0.246 1.93 0.246 2.93 1.25 2.49 0.1 4.95 0.139 7.44 0.125 0.694 0.00387 1.39 0.00773 2.1 0.0117 3.86 0.0569 3.86 0.0569 7.46-1.14 3.48-0.0713 6.94 0.00331 10.4 0.0625 3.32-0.0581 6.31-0.484 9.58-1.06 1.94-0.0962 3.87-0.179 5.81-0.25 7.8-0.552 14.8-2.82 22.2-5.16 2.63-0.8 5.28-1.46 7.95-2.09 4.18-1 8.27-2.18 12.4-3.44 18.8-5.73 18.8-5.73 27.6-2.26 3.89 2.26 6.29 5.06 8.05 9.2 0.622 3.69 0.35 6.51-1 10-4.75 6.42-12.5 10.1-20.3 11.4-1.91 0.213-3.82 0.412-5.73 0.609-1.35 0.635-2.68 1.3-4 2-5.1 1.27-10.2 1.04-15.4 0.938-2.59-0.123-2.59-0.123-4.61 1.06-6.05 0.341-12.1 0.164-18-1l-1-1c-2.9-0.0482-5.79-0.0422-8.69 0-8.16 0.0679-16.2-0.257-24.3-1v2c-0.987-0.0116-1.97-0.0232-2.99-0.0352-1.28-0.00902-2.56-0.018-3.88-0.0273-1.91-0.0174-1.91-0.0174-3.87-0.0352-3.14-0.134-3.14-0.134-5.26 1.1-1.46 0.0954-2.93 0.131-4.39 0.133-1.31 0.00193-1.31 0.00193-2.65 0.00391-0.915-0.00387-1.83-0.00773-2.77-0.0117-1.35 0.0058-1.35 0.0058-2.74 0.0117-4.3-0.00632-8.25-0.145-12.5-1.14h-3.56c-2.9 0-4.71-0.306-7.44-1-1.46-0.147-2.92-0.27-4.38-0.375-8.73-0.816-17.3-2.73-25.6-5.62 0.66-1.32 1.32-2.64 2-4 0.611 0.182 1.22 0.364 1.85 0.551 26.8 7.37 54.7 6.96 82.2 5.23 10.6-0.657 20.8-0.81 31.5 0.222 11.7 1.14 22.8 0.768 34.4-1 0.872-0.132 1.74-0.264 2.64-0.399 14.1-1.88 14.1-1.88 25.4-9.6 1.29-4.06 0.411-7.05-1.25-10.9-1.9-2.31-2.99-3.06-5.75-4.12-12.6-0.746-25.3 4-37.2 7.56-20.5 6.1-40.4 8.62-61.8 8.63-1.28 0.0122-2.55 0.0245-3.87 0.0371-14.2 0.0218-26.8-1.43-38.1-10.7-4.06-5.21-7.42-10.6-7.27-17.4 1.07-8.44 4.87-15.6 11.3-21.2 8.67-6.15 19.9-6.33 30.2-6.19z" fill="#003C78"/>
<path transform="translate(233 1193)" d="m0 0c0.998 0.0232 2 0.0464 3.02 0.0703 1.5 0.0271 1.5 0.0271 3.04 0.0547 0.771 0.0232 1.54 0.0464 2.34 0.0703 1.42 2.54 2.83 5.08 4.25 7.62 0.661 1.19 0.661 1.19 1.34 2.39 2.59 4.65 5.14 9.31 7.64 14 0.534 0.994 1.07 1.99 1.62 3.01 1.05 1.96 2.09 3.91 3.13 5.88 0.481 0.895 0.962 1.79 1.46 2.71 0.423 0.797 0.847 1.59 1.28 2.41 1.29 2.25 1.29 2.25 4.28 3.96-0.0157-1.54-0.0157-1.54-0.0317-3.12-0.0363-3.84-0.0592-7.67-0.0781-11.5-0.01-1.66-0.0237-3.31-0.041-4.97-0.0244-2.39-0.0356-4.78-0.0444-7.16-0.0103-0.735-0.0206-1.47-0.0313-2.23-9.47e-4 -4.39 0.551-7.95 2.23-12 1-1 1-1 4-1.12 3 0.125 3 0.125 4 1.12 0.0938 1.84 0.117 3.69 0.114 5.53-7.55e-5 1.18-1.51e-4 2.36-2.29e-4 3.58-0.00516 1.29-0.0103 2.57-0.0156 3.9-0.00141 1.31-0.00283 2.62-0.00429 3.96-0.00382 3.48-0.0137 6.97-0.0247 10.5-0.0102 3.55-0.0148 7.1-0.0198 10.7-0.0107 6.97-0.0278 13.9-0.0488 20.9-1.78 0.0563-3.56 0.0968-5.35 0.13-0.993 0.0242-1.99 0.0484-3.01 0.0733-2.65-0.204-2.65-0.204-5.09-2.29-0.513-0.962-1.03-1.92-1.55-2.91-0.637-1.04-1.27-2.09-1.93-3.16-0.642-1.14-1.28-2.28-1.95-3.46-0.347-0.614-0.693-1.23-1.05-1.86-2.59-4.61-5.12-9.25-7.62-13.9-1.99-3.58-4.16-7.05-6.35-10.5-1.1-2.09-1.1-2.09-1.1-5.09h-3v43h-9c-1.72-1.72-1.14-3.97-1.15-6.31-0.00638-1.13-0.0128-2.27-0.0193-3.44-0.00111-1.24-0.00223-2.47-0.00337-3.74-0.00333-1.26-0.00666-2.52-0.0101-3.82-0.00507-2.67-0.00784-5.34-0.00725-8.01 1.02e-4 -3.42-0.0135-6.85-0.0308-10.3-0.0138-3.26-0.0132-6.52-0.0144-9.78-0.00719-1.23-0.0144-2.47-0.0218-3.74 0.00308-1.14 0.00615-2.28 0.00932-3.45-0.00214-1.51-0.00214-1.51-0.00432-3.05 0.362-3.51 1.36-4.33 4.85-4.59z" fill="#003C79"/>
<path transform="translate(763 1312)" d="m0 0c5.2 3.76 7.63 9.09 8.79 15.3 0.617 6.62 0.316 13.1-3 19-4.21 4.67-7.9 7.78-14.3 8.24-12.9 0.245-12.9 0.245-18.7-4.24-0.887-0.536-1.77-1.07-2.69-1.62-4.24-4.36-5.95-9.87-6.81-15.8 1.16-8.3 3.51-15 10.3-20.2 8.66-5.4 17.5-5.61 26.4-0.668z" fill="#003C78"/>
<path transform="translate(387,1312)" d="m0 0c5.53 5 8.26 10.7 9.28 18 0.314 6.59-1.57 13.1-5.59 18.3-4.88 4.76-9.25 6.07-16 6.12-8.22-0.17-13.3-2.1-19.1-7.88-3.83-6.19-5.65-11.4-4.62-18.6 1.87-7.69 5.41-12.6 12-17 7.57-4.39 16.8-3.94 24 1z" fill="#003C79"/>
<path transform="translate(422 1209)" d="m0 0c5.89 3.33 10.5 8.73 12.7 15.2 1.05 15.9 1.05 15.9-3 22-4.17 4.59-8.56 7.59-14.8 8.34-8.46 0.111-13.6-1.2-20-6.84-5.61-6.41-6.54-10.7-6.47-19.2 0.506-5.93 2.84-9.53 6.53-14.1 7.36-6.02 15.7-8.81 25.1-5.4z" fill="#003C7A"/>
<path transform="translate(709,304)" d="m0 0c7.39 4.44 13.2 10.9 18 18 0.125 2.69 0.125 2.69 0 5-2.9 0.604-4.23 0.865-7 0-2.18-2.32-3.95-4.82-5.83-7.38-5.38-6.48-13.4-10-21.7-10.9-10.5-0.471-19.4 3.59-27.5 10.2-6.34 6.55-10.4 15.5-11.1 24.6 0.384 9.91 3.84 17.2 10.8 24.1 7.6 6.87 14.3 9.5 24.6 9.45 1.09 0.0058 1.09 0.0058 2.2 0.0117 4.93-0.00879 9.67-0.441 14.6-1.14 2 3 2 3 1.62 5.69-0.206 0.763-0.413 1.53-0.625 2.31-14.3 3.77-25.5 4.48-39-2.58-11.4-6.97-18.6-15-21.9-28.1-2.33-12.3 0.508-23 6.88-33.5 0.681-0.928 1.36-1.86 2.06-2.81 0.722-0.99 1.44-1.98 2.19-3 12.9-14.9 34.4-17.7 51.8-10z" fill="#FDFDFD"/>
<path transform="translate(739 262)" d="m0 0c9.16 6.85 14.9 16.1 17.9 27.1 0.191 0.628 0.382 1.26 0.578 1.9 2.23 11.1 0.525 22.8-5.64 32.2-7.66 10.1-16.3 16.8-28.9 18.9-1.73 0.111-3.46 0.174-5.19 0.188-0.86 0.0142-1.72 0.0284-2.61 0.043-2.21-0.23-2.21-0.23-4.21-2.23 0.375-2.62 0.375-2.62 1-5 0.594-0.098 1.19-0.196 1.8-0.297 11.9-2.14 21.1-5.33 29.2-14.7 3.24-4.96 5.63-10 6-16 0.0928-1.2 0.0928-1.2 0.188-2.42 0.465-10.3-2.61-18.7-9.2-26.6-6.9-6.96-14.4-10.3-24.2-10.4-11 0.203-17.6 3.33-25.5 10.9-5.71 6.29-9.02 13.4-11.3 21.5-2 0.0425-4 0.0408-6 0-0.33-0.33-0.66-0.66-1-1 0-10.9 5.71-21.1 13-29 15.7-12.3 36.6-16 54.1-5.06z" fill="#FDFDFD"/>
<path transform="translate(763,308)" d="m0 0c5.51 0.474 7.58 3.21 11 7.25 9.2 12.7 10 24.6 9 39.8-1.75 10.5-8.85 17.8-16.9 24.4-9.72 6.73-20.7 8.82-32.4 7.15-12.7-2.92-22.5-9.25-30.1-20.1-5.15-8.36-7.64-17.6-6.56-27.4 1.53-6.37 3.23-12.6 7-18 2.19-0.812 2.19-0.812 4-1 2.37 3.55 2.4 4.81 2 9-0.491 1.05-0.982 2.1-1.49 3.18-3.15 7.13-2.7 16.4-0.703 23.8 4.21 9.27 11.9 16.2 21.2 20 8.07 2.36 19.6 2.6 27.3-0.75 4.4-2.44 7.88-5.04 10.7-9.25h2c0.286-0.721 0.572-1.44 0.867-2.18 0.713-1.77 1.44-3.54 2.2-5.29 4.37-10.7 4.07-19.7-0.355-30.4-2.37-4.3-5.43-7.48-9.02-10.8-1.7-2.32-1.7-2.32-1.52-5.54 0.82-2.78 0.82-2.78 1.82-3.78z" fill="#FDFDFD"/>
<path transform="translate(670,321)" d="m0 0c2.93 2.84 5.63 5.74 8.25 8.88 2.61 3.07 5.24 5.24 8.56 7.5 3.41 2.55 4.77 4.17 5.56 8.38 0.21 1.75 0.419 3.5 0.625 5.25 1.19 5.14 2.53 10.2 4.69 15 1.31 3 1.31 3 1.31 6-21.1 0.964-21.1 0.964-28-5-0.703-0.535-1.41-1.07-2.13-1.62-6.34-5.43-9.23-12.3-10.9-20.4-0.0825-8.1 3.1-14.7 8.44-20.6 1.15-1.17 2.35-2.29 3.56-3.4z" fill="#003C7A"/>
<path transform="translate(759,322)" d="m0 0c5.17 1.72 7.42 5.83 9.75 10.5 2.61 7.6 2.36 16.9-0.586 24.4-3.44 6.3-8.47 11.9-15.2 14.6-6.85 1.35-14 0.844-20.9 0.574-0.66-1.32-1.32-2.64-2-4 0.433-0.474 0.866-0.949 1.31-1.44 4.27-6.49 5.04-13.3 5.28-21 0.466-2.98 1.05-3.8 3.41-5.6 0.866-0.536 1.73-1.07 2.62-1.62 5.89-3.82 11.3-9.05 14.4-15.4l2-1z" fill="#003C7A"/>
<path transform="translate(730,273)" d="m0 0c5.08 3.59 10.3 8.26 13 14 0.393 2.32 0.735 4.66 1 7-1.04 0.17-2.08 0.34-3.15 0.516-8.07 1.38-15.4 3.09-22.9 6.48-3 1-3 1-5.42 0.0742-0.914-0.458-1.83-0.915-2.77-1.39-7.49-3.55-14.6-4.96-22.8-5.69-1-3-1-3-0.18-5.3 5.05-9.94 11.1-14.6 21.2-19 8.08-1.85 14.7-0.672 22 3.31z" fill="#003C7A"/>
<path transform="translate(515 1208)" d="m0 0c1.12-0.0258 2.24-0.0516 3.4-0.0781 3.58 0.364 5.36 1.19 8.23 3.33 4.72 6.04 5.13 10.8 5.1 18.3-0.00141 0.681-0.00283 1.36-0.00429 2.06-0.00557 2.16-0.0181 4.32-0.0309 6.48-0.00502 1.47-0.00958 2.94-0.0137 4.41-0.011 3.59-0.0282 7.18-0.0488 10.8-6.62 0.125-6.62 0.125-10-1-0.866 0.309-1.73 0.619-2.62 0.938-6.4 2.01-12.5 1.7-18.6-0.973-2.89-1.61-4.2-3.03-5.73-5.96-0.83-4.68-0.471-8.04 1.62-12.3 4.58-5.18 9.54-7.76 16.4-8.69 3.34-0.143 6.66-0.123 10 0-1.92-5.31-1.92-5.31-6-9-2.32-0.0618-2.32-0.0618-4.81 0.312-0.88 0.108-1.76 0.217-2.67 0.328-2.85 0.406-5.69 0.838-8.52 1.36-0.33-1.65-0.66-3.3-1-5 5.42-3.73 8.8-5.16 15.4-5.25z" fill="#003C7A"/>
<path transform="translate(659 1311)" d="m0 0c4.85 5.44 5.93 10.4 6.07 17.6 0.018 0.7 0.0359 1.4 0.0544 2.12 0.0537 2.21 0.0879 4.42 0.121 6.63 0.0332 1.51 0.0677 3.02 0.104 4.53 0.0845 3.68 0.151 7.36 0.209 11-7.75 0.125-7.75 0.125-10-1-0.55 0.302-1.1 0.603-1.67 0.914-5.47 2.55-14 2.05-19.8 0.363-2.68-1.4-4.35-2.99-5.97-5.53-1.77-8.66-1.77-8.66 0.57-12.7 3.77-4.67 7.74-7.25 13.6-8.72 4.42-0.425 8.81-0.391 13.2-0.312-0.77-3.71-1.33-6.31-4-9.06-5.93-1.85-12.5 0.499-18 3.06-0.33-1.98-0.66-3.96-1-6 6.76-6.34 18.5-8.83 26.4-2.88z" fill="#003C7A"/>
<path transform="translate(596 1193)" d="m0 0c2.94 0.188 2.94 0.188 3.94 1.19 0.111 2.86 0.162 5.7 0.176 8.57 0.0232 1.78 0.0473 3.57 0.0723 5.35 0.035 2.82 0.0644 5.63 0.0779 8.45 0.0156 2.71 0.0559 5.43 0.0999 8.14-0.00191 0.831-0.00382 1.66-0.00578 2.52 0.118 5.71 1.28 10.2 4.58 15 3.85 2.8 7.37 3.55 12 3.35 3.37-0.605 5.43-2.12 7.96-4.35 2.55-4.6 2.31-9.27 2.34-14.4 0.0146-0.898 0.0292-1.8 0.0443-2.72 0.0622-3.83 0.102-7.67 0.144-11.5 0.0336-2.8 0.0788-5.6 0.125-8.41 0.00528-0.871 0.0106-1.74 0.016-2.64 0.102-6.12 0.102-6.12 2.33-8.35 3.06-0.188 3.06-0.188 6 0 1.54 1.54 1.15 2.97 1.18 5.12 0.0193 1.31 0.0193 1.31 0.0389 2.65 0.00739 0.954 0.0148 1.91 0.0224 2.89 0.00807 0.978 0.0161 1.96 0.0245 2.96 0.0139 2.08 0.0246 4.16 0.0324 6.24 0.0171 3.16 0.061 6.32 0.105 9.49 0.0101 2.02 0.0186 4.04 0.0254 6.06 0.0175 0.94 0.035 1.88 0.0531 2.85-0.0219 6.73-1.29 12.1-5.82 17.3-5.52 5.07-11.9 5.9-19.1 5.73-6.98-0.683-12.8-3.01-17.6-8.25-5.46-8.44-4.54-18.5-4.41-28.2 0.0369-2.86 0.041-5.72 0.0405-8.58 0.00982-1.82 0.0215-3.63 0.0352-5.45 0.00223-0.855 0.00445-1.71 0.00674-2.59 0.131-8.09 0.131-8.09 5.39-8.41z" fill="#003C7A"/>
<path transform="translate(308 1208)" d="m0 0c1.03-0.0142 2.06-0.0284 3.12-0.043 2.84 0.228 4.47 0.765 6.88 2.23v2h2c4.04 4.63 3.56 10.2 3.69 16 0.0334 1.02 0.0669 2.05 0.101 3.1 0.222 7.3 0.337 14.6 0.211 21.9-5.62 0.25-5.62 0.25-9-2-0.99 0.66-1.98 1.32-3 2-6.4 1.83-12.9 1.7-19-1-4.66-3.31-4.66-3.31-6-6-0.609-4.22-0.906-8.25 1.09-12.1 4.39-5.46 9.95-8.08 16.9-8.89 3.34-0.0721 6.66-0.0583 10 0-0.618-1.32-1.24-2.63-1.88-3.94-0.348-0.731-0.696-1.46-1.05-2.21-0.939-2.01-0.939-2.01-3.07-2.85-5.63-0.345-10.6 0.625-16 2-0.33-1.65-0.66-3.3-1-5 5.69-4.01 9.11-5.14 16-5.19z" fill="#003C7A"/>
<path transform="translate(843 1310)" d="m0 0c4.22 3.44 7.65 7.76 9.38 12.9v11c-9.24 0.33-18.5 0.66-28 1-1.35 2.94-1.35 2.94 0.0625 5.5 2.46 3.18 4.12 4.18 7.94 5.5 5.47 0.489 10.6-0.0318 16-1 1 1 1 1 1.06 4.56-0.0206 1.13-0.0412 2.27-0.0625 3.44-7.4 2.47-17.7 2.26-25.1 0.0938-5.9-3.09-8.83-7.24-11.1-13.5-1.96-9.49 0.011-16.3 5-24.5 6.99-6.6 15.9-8.7 24.9-5.06z" fill="#003C7A"/>
<path transform="translate(797 1210)" d="m0 0c5.18 4.81 8.24 9.39 9.62 16.4v7c-9.57 0.33-19.1 0.66-29 1 0.279 6.68 0.279 6.68 3.25 9.44 5.94 3.39 14.4 2.16 20.8 0.562 1 1 1 1 1.06 4.56-0.0206 1.13-0.0412 2.27-0.0625 3.44-6.5 3.08-14.2 2.99-21.2 1.54-5.79-2.23-10.4-6.43-13.7-11.6-2.24-6.24-2.3-14.6 0.0625-20.8 6.44-10.7 16.7-17.4 29.2-11.6z" fill="#003C7A"/>
<path transform="translate(489,1295)" d="m0 0v7c-1.04-0.0232-2.07-0.0464-3.14-0.0703-1.37-0.0188-2.74-0.037-4.11-0.0547-1.02-0.0251-1.02-0.0251-2.07-0.0508-3.72-0.0361-6.59-0.0123-9.68 2.18-1.35 2.71-1.07 5.01-1 8 0.929 0.508 1.86 1.02 2.82 1.54 15.7 8.67 15.7 8.67 20.2 15.5 1.7 6.13 1.66 12.2-1 18-3.41 4.05-6.52 6.66-11.9 7.19-2.2 0.0802-4.38 0.0843-6.58 0.0615-1.12 0.0116-1.12 0.0116-2.26 0.0234-4.2-0.0149-7.41-0.358-11.2-2.27-0.0425-2-0.0408-4 0-6 0.495-0.495 0.495-0.495 1-1 3.77 0.0416 7.53 0.128 11.3 0.303 4.94 0.143 4.94 0.143 9.24-2.1 2.17-3.27 2.07-5.36 1.46-9.2-3.37-4.76-8.18-6.79-13.3-9.45-4.12-2.34-8.57-5.22-10.7-9.55-0.812-6.24-0.31-11.1 3.37-16.3 7.52-7.8 18.4-8.21 27.6-3.69z" fill="#003C7A"/>
<path transform="translate(420,478)" d="m0 0c0.33 0.66 0.66 1.32 1 2 1.32-0.33 2.64-0.66 4-1-0.103 0.887-0.206 1.77-0.312 2.69 0.419 4.44 2.03 5.38 5.31 8.31 4.73 4.94 8.21 10.4 11.6 16.2 1.06 1.79 2.11 3.58 3.17 5.38 0.8 1.35 0.8 1.35 1.62 2.73 2.41 4.01 4.94 7.95 7.46 11.9 5.29 8.28 10.3 16.7 15.2 25.2 3.71 6.42 7.53 12.7 11.6 18.9 1.55 2.95 2.17 5.26 2.36 8.59-2.31 2.88-2.31 2.88-5 5h-2c-0.495 1.49-0.495 1.49-1 3-1.85 1.39-1.85 1.39-4.06 2.69-0.733 0.437-1.47 0.874-2.22 1.32-0.566 0.326-1.13 0.652-1.71 0.988-0.93-2.79-1.19-4.77-1.32-7.67-0.0628-1.34-0.0628-1.34-0.127-2.71-0.0393-0.929-0.0786-1.86-0.119-2.81-0.0432-0.94-0.0864-1.88-0.131-2.85-0.106-2.32-0.208-4.64-0.307-6.96-1.88 0-3.75 0.0179-5.62 0.0625-2.38-0.0625-2.38-0.0625-3.38-1.06-0.133-1.33-0.203-2.68-0.246-4.02-0.0309-0.832-0.0619-1.66-0.0938-2.52-0.0322-0.895-0.0645-1.79-0.0977-2.71-0.172-3.58-0.365-7.17-0.562-10.8-0.0632-1.19-0.126-2.39-0.191-3.62-1.39-13.8-10.2-25.9-17.8-37.2-1.84-2.83-3.49-5.7-5.12-8.66-2.43-4.15-5.15-6.59-9.2-9.15-2.05-1.6-2.8-2.94-3.73-5.35-0.188-2.69-0.188-2.69 0-5l1-1z" fill="#003C79"/>
<path transform="translate(942,1208)" d="m0 0c2.43 2.43 2.9 4.29 3.95 7.56 0.532 1.66 0.532 1.66 1.07 3.36 0.547 1.74 0.547 1.74 1.11 3.52 0.559 1.74 0.559 1.74 1.13 3.51 2.75 8.66 2.75 8.66 2.75 12.1h2v2c3.15-1.57 3.28-4.18 4.38-7.44 0.219-0.642 0.438-1.28 0.664-1.95 0.7-2.06 1.39-4.12 2.08-6.17 0.472-1.39 0.945-2.79 1.42-4.18 1.16-3.42 2.31-6.84 3.46-10.3 3.38-0.625 3.38-0.625 7-1 0.66 0.66 1.32 1.32 2 2-3.77 11.7-7.72 23.3-11.9 34.8-0.469 1.31-0.933 2.63-1.39 3.95-6.28 18-6.28 18-12.8 21.2-2.04 0.0707-4.08 0.0842-6.12 0.0625-1.1-0.00902-2.19-0.018-3.32-0.0273-0.843-0.0116-1.69-0.0232-2.55-0.0352-1-3-1-3 0-5.06 2.7-2.62 5.4-3.02 9-3.94 2.45-2.45 2.3-3.18 2.32-6.55-0.115-5.37-1.43-9.69-3.42-14.6-0.313-0.822-0.626-1.64-0.949-2.49-0.99-2.59-2-5.18-3.02-7.76-1.02-2.61-2.03-5.22-3.03-7.84-0.62-1.62-1.25-3.24-1.89-4.85-2.13-5.54-2.13-5.54-1.02-8.88 2.51-1.26 4.22-1.21 7-1z" fill="#003C79"/>
<path transform="translate(448,1208)" d="m0 0c3.78 0.51 5.45 1.21 8 4 1.09-0.66 2.19-1.32 3.31-2 5.15-2.55 10-2.99 15.7-2 4.73 2.25 7.08 6.26 9 11 1.19 3.66 1.11 7.13 1.1 11-0.00141 0.66-0.00283 1.32-0.00429 2-0.00558 2.1-0.0181 4.2-0.0309 6.3-0.00502 1.43-0.00958 2.85-0.0137 4.28-0.011 3.49-0.0282 6.98-0.0488 10.5-6.15 0.0977-6.15 0.0977-8 0-1.74-1.74-1.19-4.17-1.25-6.54-0.0329-1.14-0.0657-2.28-0.0996-3.45-0.0606-2.4-0.118-4.8-0.172-7.2-0.177-5.95-0.458-11.2-2.48-16.8-0.33-0.99-0.66-1.98-1-3-1.4 0.116-2.79 0.243-4.19 0.375-0.777 0.0696-1.55 0.139-2.36 0.211-2.81 0.473-4.92 1.1-7.46 2.41-3.58 6.94-3.52 15.5-3.69 23.2-0.0342 1.05-0.0683 2.09-0.104 3.17-0.0814 2.55-0.151 5.09-0.209 7.64-2.33 0.0424-4.67 0.0409-7 0-3.27-3.27-2.17-11.3-2.2-15.8-0.0057-0.713-0.0114-1.43-0.0173-2.16-0.00938-1.49-0.016-2.99-0.0198-4.48-0.00978-2.28-0.0409-4.57-0.0723-6.85-0.00652-1.46-0.0118-2.92-0.0156-4.38-0.00935-1.32-0.0187-2.63-0.0283-3.99 0.37-3.5 0.953-4.87 3.36-7.37z" fill="#003C7A"/>
<path transform="translate(657 1208)" d="m0 0c2.44 0.812 2.44 0.812 4.44 2.81 2.6-0.273 4.57-0.762 6.86-2.02 3.9-1.78 7.95-1.5 12.1-0.977 5.14 2.38 7.85 5.84 10 11 0.331 2.85 0.473 5.29 0.391 8.12-0.00566 0.745-0.0113 1.49-0.0172 2.26-0.0222 2.35-0.0724 4.71-0.123 7.06-0.0201 1.61-0.0383 3.21-0.0547 4.82-0.0438 3.92-0.113 7.83-0.195 11.7-2.33 0.0424-4.67 0.0409-7 0-1.74-1.74-1.19-4.17-1.25-6.54-0.0329-1.14-0.0657-2.28-0.0996-3.45-0.0606-2.4-0.118-4.8-0.172-7.2-0.177-5.95-0.458-11.2-2.48-16.8-0.33-0.99-0.66-1.98-1-3-5.22-0.313-8.63 0.0214-13 3-3.33 5.28-4.08 10.4-4.32 16.5-0.0419 1.02-0.0838 2.04-0.127 3.1-0.059 1.58-0.059 1.58-0.119 3.2-0.0432 1.07-0.0864 2.15-0.131 3.26-0.106 2.64-0.208 5.29-0.307 7.93-6.15 0.0977-6.15 0.0977-8 0-2.14-2.14-1.19-6.99-1.2-9.96-0.0057-0.902-0.0114-1.8-0.0173-2.73-0.00947-1.91-0.016-3.82-0.0198-5.73-0.0097-2.93-0.0407-5.86-0.0723-8.78-0.00653-1.85-0.0118-3.71-0.0156-5.56-0.0123-0.878-0.0247-1.76-0.0374-2.66 3e-3 -0.817 6e-3 -1.63 0.00909-2.48-0.00365-0.719-0.00729-1.44-0.011-2.18 0.685-3.56 2.36-4.98 5.93-4.72z" fill="#003C7A"/>
<path transform="translate(559 1311)" d="m0 0c5.68 6.11 7.27 12.1 7.2 20.4-0.00645 1.29-0.0129 2.57-0.0195 3.9-0.0167 1.34-0.0336 2.68-0.0508 4.01-0.01 1.37-0.0192 2.73-0.0273 4.1-0.0235 3.32-0.0563 6.64-0.0977 9.97-6.15 0.0977-6.15 0.0977-8 0-1.8-1.8-1.17-4.58-1.21-7.01-0.0284-1.23-0.0567-2.47-0.0859-3.74-0.0517-2.61-0.0961-5.21-0.133-7.82-0.0309-1.24-0.0619-2.48-0.0938-3.76-0.0198-1.14-0.0396-2.27-0.0601-3.44-0.473-3.68-1.43-6.11-3.42-9.24-3.89-1.22-5.99-1.44-9.75 0.188-6.06 4.89-6.43 10.4-7.25 17.8-0.458 5.66-0.745 11.3-1 17-2.33 0.0424-4.67 0.0409-7 0-2.14-2.14-1.16-7.03-1.17-10-0.00333-0.904-0.00666-1.81-0.0101-2.74-0.00507-1.92-0.00741-3.83-0.00725-5.75-0.00219-2.94-0.0203-5.88-0.0393-8.82-0.00293-1.86-0.00492-3.71-0.00586-5.57-0.00719-0.883-0.0144-1.77-0.0218-2.68 0.0234-6.22 0.0234-6.22 2.25-8.45 3 0.188 3 0.188 6 1 0.99 1.48 0.99 1.48 2 3 1.05-0.639 2.1-1.28 3.19-1.94 5.89-3.32 13.1-5.03 18.8-0.457z" fill="#003C79"/>
<path transform="translate(430,1288)" d="m0 0c2 2 2 2 2 7-3.3 0.66-6.6 1.32-10 2-0.33 3.63-0.66 7.26-1 11 1.46 0.309 2.93 0.619 4.44 0.938 4.44 0.938 4.44 0.938 5.56 2.06 0.0408 2 0.0425 4 0 6-0.638 0.0606-1.28 0.121-1.93 0.184-1.24 0.126-1.24 0.126-2.5 0.254-1.24 0.122-1.24 0.122-2.5 0.246-2.05 0.106-2.05 0.106-3.07 1.32-0.16 2.52-0.259 5.01-0.316 7.54-0.0208 0.753-0.0416 1.51-0.063 2.28-0.0656 2.41-0.124 4.83-0.183 7.24-0.0432 1.63-0.0868 3.27-0.131 4.9-0.107 4.01-0.209 8.02-0.307 12-6.15 0.0977-6.15 0.0977-8 0-1.98-1.98-1.26-5.82-1.32-8.54-0.0208-0.753-0.0416-1.51-0.063-2.28-0.0656-2.41-0.124-4.83-0.183-7.24-0.0432-1.63-0.0868-3.27-0.131-4.9-0.107-4.01-0.209-8.02-0.307-12-1.3-0.144-2.6-0.289-3.94-0.438-3.94-0.438-3.94-0.438-5.06-1.56-0.188-2.44-0.188-2.44 0-5 2-2 2-2 3.95-2.2 2.02 0.0651 4.04 0.13 6.05 0.195-0.0619-0.969-0.124-1.94-0.188-2.94 0.055-5.42 0.912-10.8 4.89-14.7 4.79-3.32 8.56-4.01 14.3-3.32z" fill="#003C78"/>
<path transform="translate(723,1209)" d="m0 0c3.31-0.312 3.31-0.312 7 0 2.46 3.31 3.72 6.76 4.94 10.7 0.338 1.06 0.675 2.12 1.02 3.21 0.696 2.22 1.39 4.44 2.08 6.66 0.338 1.05 0.675 2.11 1.02 3.19 0.3 0.963 0.601 1.93 0.91 2.92 0.912 2.66 0.912 2.66 4.03 4.35 0.22-0.878 0.22-0.878 0.445-1.77 1.66-6.34 3.58-12.6 5.62-18.8 0.257-0.798 0.515-1.6 0.78-2.42 1.92-5.78 1.92-5.78 4.16-8.02 3.62-0.125 3.62-0.125 7 0-1.52 9.63-4.82 18.5-8.12 27.6-0.57 1.59-1.14 3.18-1.71 4.78-1.38 3.87-2.77 7.73-4.17 11.6-1.6 0.0812-3.21 0.139-4.81 0.188-1.34 0.0522-1.34 0.0522-2.71 0.105-2.48-0.293-2.48-0.293-4.14-1.38-1.92-2.73-2.86-5.56-3.97-8.71-0.235-0.665-0.47-1.33-0.713-2.01-0.496-1.41-0.987-2.81-1.47-4.22-0.739-2.13-1.49-4.26-2.24-6.39-2.27-6.47-4.51-12.9-5.94-19.6 0.33-0.66 0.66-1.32 1-2z" fill="#003C7A"/>
<path transform="translate(349,1198)" d="m0 0v10c2.57 0.228 5.14 0.456 7.71 0.684 2.29 0.316 2.29 0.316 3.29 1.32 0.0408 2 0.0425 4 0 6-0.638 0.0606-1.28 0.121-1.93 0.184-1.24 0.126-1.24 0.126-2.5 0.254-1.24 0.122-1.24 0.122-2.5 0.246-2.05 0.106-2.05 0.106-3.07 1.32-0.281 3.95-0.232 7.92-0.25 11.9-0.0206 1.12-0.0412 2.23-0.0625 3.38-0.00516 1.07-0.0103 2.14-0.0156 3.24-0.00935 0.983-0.0187 1.97-0.0283 2.98 0.16 2.55 0.16 2.55 1.65 4.33 2.67 1.87 5.53 1.84 8.71 2.19 1 1 1 1 1.12 4-0.125 3-0.125 3-1.12 4-5.91 0.579-11 0.553-16-3-5.51-5.77-4.67-12.8-4.75-20.4-0.0296-1.31-0.0593-2.62-0.0898-3.96-0.0705-3.22-0.123-6.44-0.16-9.66-1.13-0.122-2.25-0.245-3.41-0.371-1.18-0.208-2.37-0.415-3.59-0.629-1.44-2.06-1.44-2.06-2-4 1.06-2 1.06-2 3-4 3.69-0.25 3.69-0.25 7 0-0.0619-1.09-0.124-2.19-0.188-3.31 0.188-3.69 0.188-3.69 1.56-5.56 3.26-2.26 3.36-2.19 7.62-1.12z" fill="#003C79"/>
<path transform="translate(919,1198)" d="m0 0v10c2.57 0.228 5.14 0.456 7.71 0.684 2.29 0.316 2.29 0.316 3.29 1.32 0.0408 2 0.0425 4 0 6-0.638 0.0606-1.28 0.121-1.93 0.184-1.24 0.126-1.24 0.126-2.5 0.254-1.24 0.122-1.24 0.122-2.5 0.246-2.05 0.106-2.05 0.106-3.07 1.32-0.0994 1.67-0.131 3.35-0.133 5.02-0.00129 1.02-0.00258 2.04-0.00391 3.09 0.0058 1.61 0.0058 1.61 0.0117 3.26-0.00387 1.07-0.00773 2.13-0.0117 3.23 0.00193 1.54 0.00193 1.54 0.00391 3.1 0.00113 0.941 0.00226 1.88 0.00342 2.85 0.0288 2.58 0.0288 2.58 1.13 5.44 2.07 0.769 2.07 0.769 4.5 1.12 4.42 0.798 4.42 0.798 5.5 1.88 0.0409 2.33 0.0424 4.67 0 7-6.76 0.559-11.7 0.363-17.4-3.32-3.55-3.82-3.82-8.95-3.97-14-0.0387-1.15-0.0773-2.31-0.117-3.5-0.0309-1.19-0.0619-2.38-0.0938-3.61-0.0387-1.21-0.0773-2.43-0.117-3.68-0.094-2.98-0.18-5.97-0.258-8.95-2.31-0.33-4.62-0.66-7-1-0.625-2.38-0.625-2.38-1-5 2-2 2-2 5.62-2.12 1.67 0.0619 1.67 0.0619 3.38 0.125-0.0619-1.26-0.124-2.52-0.188-3.81 0-3.91 0-3.91 1.5-6.12 3.02-1.9 4.26-2.2 7.69-1.06z" fill="#003C7A"/>
<path transform="translate(864 1208)" d="m0 0c0.95-0.0142 1.9-0.0284 2.88-0.043 2.56 0.23 2.56 0.23 5.56 2.23-0.33 1.98-0.66 3.96-1 6-0.675-0.0116-1.35-0.0232-2.05-0.0352-0.892-0.00902-1.78-0.018-2.7-0.0273-0.882-0.0116-1.76-0.0232-2.67-0.0352-2.36 0.0894-4.32 0.429-6.58 1.1v6c1.1 0.545 1.1 0.545 2.23 1.1 6.53 3.37 11.4 6.16 14.8 12.9 0.35 5.34 0.468 8.66-3 13-3.93 3.44-7.23 4.15-12.4 4.19-0.936 0.0142-1.87 0.0284-2.84 0.043-3-0.248-5.12-0.842-7.79-2.23-0.875-2.56-0.875-2.56-1-5 2-2 5.82-1.41 8.56-1.56 1.07-0.0648 1.07-0.0648 2.15-0.131 1.76-0.106 3.52-0.207 5.28-0.307 0.294-4.3 0.294-4.3-1.44-8.06-2.99-2.26-6.11-3.98-9.44-5.69-2.13-1.25-3.58-2.33-5.12-4.25-1.03-4.51-1.39-6.88 0.125-11.2 2.32-3.4 4.69-6.03 8.69-7.34 2.61-0.485 5.09-0.576 7.75-0.594z" fill="#003C7A"/>
<path transform="translate(417 1215)" d="m0 0c3.67 1.53 5.88 4.52 7.96 7.82 1.05 3.16 1.2 5.56 1.25 8.88 0.0258 1.03 0.0516 2.06 0.0781 3.12-0.453 4.16-2.21 6.51-4.65 9.79-3.8 2.76-9.25 1.84-13.7 1.22-3.48-1.61-5.38-3.98-7.38-7.25-1.33-5.86-1.59-10.7 1.5-16.1 3.91-5.48 8.02-8.76 14.9-7.5z" fill="#FDFDFD"/>
<path transform="translate(378,1316)" d="m0 0c3.88 2.38 6 4.95 8 9 0.919 6.43 1.62 13.9-2.31 19.4-2.9 2.7-5.41 3.01-9.31 3.12-3.62-0.157-6.31-0.588-9.38-2.56-3.29-4.71-5.45-9.15-5-15 1.6-5.71 3.89-9.77 9-13 3.1-1.55 5.58-1.29 9-1z" fill="#FDFDFD"/>
<path transform="translate(754 1316)" d="m0 0c4.04 2.67 6.62 4.57 8.31 9.19 0.766 5.71 1.44 11.9-1.06 17.3-2.28 2.78-4.51 4.52-8.07 5.04-4.92 0.249-8.05 0.124-11.9-3.12-3.56-3.4-4.14-6.55-4.31-11.4 0.0765-5.78 1.33-9.63 5.38-13.8 4-3.18 6.62-4.3 11.7-3.19z" fill="#FDFDFD"/>
<path transform="translate(702 1315)" d="m0 0c4.2 2.33 6.09 4.98 8.06 9.31 1.61 6.99 1.28 12.2-2.08 18.6-1.67 2.32-3.4 3.49-6.22 4-4.13 0.121-7.06 0.0507-10.4-2.56-4.38-4.81-5.09-8.86-4.94-15.2 0.741-5.07 3.22-8.7 7.05-12 3.02-2.01 4.91-2.6 8.51-2.11z" fill="#FDFDFD"/>
<path transform="translate(601,1316)" d="m0 0c3.79 2.2 5.93 4.74 7.5 8.87 1.28 5.41 1.4 11-0.746 16.1-4.13 4.72-4.13 4.72-7.8 5.36-4.09 0.254-7.07 0.05-10.4-2.48-3.22-3.62-4.57-6.15-4.55-11 0.372-4.82 1.24-8.75 3.99-12.8 3.96-3.35 6.8-4.89 12-4z" fill="#FDFDFD"/>
<path transform="translate(805,1308)" d="m0 0c2.15 3.23 2.2 4.28 2 8-1.22 0.227-2.43 0.454-3.69 0.688-4.31 1.09-6.55 2.73-9.31 6.31-2.67 5.86-2.45 12.1-2.62 18.4-0.058 1.68-0.058 1.68-0.117 3.39-0.0939 2.75-0.18 5.49-0.258 8.24-6.15 0.0977-6.15 0.0977-8 0-2.12-2.12-1.19-6.81-1.2-9.74-0.00855-1.32-0.00855-1.32-0.0173-2.66-0.00947-1.86-0.016-3.73-0.0198-5.59-0.0097-2.86-0.0407-5.71-0.0723-8.57-0.00653-1.81-0.0118-3.62-0.0156-5.43-0.0123-0.856-0.0247-1.71-0.0374-2.59 3e-3 -0.797 6e-3 -1.59 0.00909-2.42-0.00365-0.701-0.00729-1.4-0.011-2.12 0.483-2.46 1.39-3.38 3.37-4.87 2.46 0.252 4.57 0.856 6.91 1.64 2.56 0.445 3.79-0.0486 6.16-1.07 2.66-1.14 3.96-1.56 6.94-1.56z" fill="#003C78"/>
<path transform="translate(551 1188)" d="m0 0c2.44 0.188 2.44 0.188 3.44 1.19 0.0941 1.99 0.117 3.99 0.114 5.99-7.55e-5 1.28-1.51e-4 2.56-2.29e-4 3.88-0.00511 1.41-0.0103 2.82-0.0156 4.23-0.00186 1.43-0.00329 2.87-0.00429 4.3-0.00382 3.78-0.0137 7.56-0.0247 11.3-0.0102 3.85-0.0148 7.71-0.0198 11.6-0.0107 7.57-0.0278 15.1-0.0488 22.7-2.33 0.0424-4.67 0.0409-7 0-1.78-1.78-1.14-4.37-1.15-6.77-0.00638-1.23-0.0128-2.47-0.0193-3.74-0.00153-1.36-0.00264-2.72-0.00337-4.07-0.00321-1.38-0.00657-2.77-0.0101-4.15-6e-3 -2.9-0.00784-5.81-0.00725-8.71 1.02e-4 -3.73-0.0135-7.45-0.0308-11.2-0.0111-2.86-0.0131-5.72-0.0126-8.58-0.00118-1.37-0.00562-2.75-0.0133-4.12-0.00976-1.92-0.00567-3.84-8.95e-4 -5.76-0.00143-1.09-0.00285-2.19-0.00432-3.32 0.343-3.59 1.2-4.51 4.81-4.78z" fill="#003C7B"/>
<path transform="translate(840,1208)" d="m0 0c1 1 1 1 1.06 4.56-0.0206 1.13-0.0412 2.27-0.0625 3.44-1.26 0.268-2.52 0.536-3.81 0.812-4.24 1.08-4.24 1.08-7.19 4.19-2.36 4.2-3.42 7.47-3.73 12.3-0.0806 1.15-0.161 2.31-0.244 3.5-0.0703 1.19-0.141 2.38-0.213 3.61-0.0819 1.21-0.164 2.43-0.248 3.68-0.2 2.98-0.387 5.97-0.564 8.95-2.33 0.0424-4.67 0.0409-7 0-2.14-2.14-1.16-7.03-1.17-10-0.00333-0.904-0.00666-1.81-0.0101-2.74-0.00507-1.92-0.00741-3.83-0.00725-5.75-0.00219-2.94-0.0203-5.88-0.0393-8.82-0.00293-1.86-0.00492-3.71-0.00586-5.57-0.00719-0.883-0.0144-1.77-0.0218-2.68 0.0234-6.22 0.0234-6.22 2.25-8.45 3.56 0.25 3.56 0.25 7 1 0.33 0.66 0.66 1.32 1 2 1.03-0.66 2.06-1.32 3.12-2 3.41-1.96 5.89-2.47 9.88-2z" fill="#003C7A"/>
<path transform="translate(823,1327)" d="m0 0c0.66 0.33 1.32 0.66 2 1v2c2.58 0.027 5.17 0.0469 7.75 0.0625 0.73 0.00838 1.46 0.0168 2.21 0.0254 3.53 0.016 6.65-0.135 10-1.09 0.495 2.47 0.495 2.47 1 5-7.26 0.33-14.5 0.66-22 1-1.35 2.94-1.35 2.94 0.0625 5.5 2.46 3.18 4.12 4.18 7.94 5.5 5.47 0.489 10.6-0.0318 16-1 1 1 1 1 1.06 4.56-0.0206 1.13-0.0412 2.27-0.0625 3.44-7.4 2.47-17.7 2.26-25.1 0.0938-5.74-3.01-8.84-6.95-10.9-13.1-0.128-2.67-0.0439-5.32 0-8h1c0.33 1.98 0.66 3.96 1 6 0.99-0.66 1.98-1.32 3-2 0.66 0.33 1.32 0.66 2 1 0.33-1.65 0.66-3.3 1-5h1c0.33-1.65 0.66-3.3 1-5z" fill="#003C79"/>
<path transform="translate(548 473)" d="m0 0c0.953 0.0142 1.91 0.0284 2.89 0.043 0.945 0.00645 1.89 0.0129 2.86 0.0195 2.7 0.16 5.19 0.569 7.82 1.17-2.69 2.21-5.17 4.09-8.25 5.75-2.91 2.38-3.19 2.71-3.69 6.19-0.177 3.2 0.25 5.93 0.938 9.06 0.0917 3.01 0.0449 5.99 0 9-5.45 2.97-5.45 2.97-11 6 0.66 3.3 1.32 6.6 2 10-4.95 0.495-4.95 0.495-10 1 0.99-0.99 1.98-1.98 3-3 0.689-3.06 0.592-5.92 0-9-2.21-2.88-2.21-2.88-5-5-0.99-1.32-1.98-2.64-3-4h17c-0.0232-1.78-0.0464-3.56-0.0703-5.4-0.0188-2.33-0.037-4.65-0.0547-6.98-0.0168-1.18-0.0335-2.35-0.0508-3.56-0.00645-1.12-0.0129-2.24-0.0195-3.4-0.0105-1.04-0.0209-2.07-0.0317-3.14 0.311-3.46 1.18-4.42 4.65-4.75z" fill="#003C7A"/>
<path transform="translate(376 1208)" d="m0 0c2.94 0.188 2.94 0.188 3.94 1.19 0.0928 1.38 0.117 2.77 0.114 4.15-7.55e-5 0.881-1.51e-4 1.76-2.29e-4 2.67-0.00516 0.957-0.0103 1.91-0.0156 2.9-0.00141 0.975-0.00283 1.95-0.00429 2.96-0.00562 3.13-0.0182 6.26-0.0309 9.38-0.00501 2.12-0.00958 4.23-0.0137 6.35-0.0111 5.2-0.0278 10.4-0.0488 15.6-6.15 0.0977-6.15 0.0977-8 0-2.16-2.16-1.16-7.21-1.17-10.2-0.00333-0.926-0.00666-1.85-0.0101-2.81-0.00507-1.96-0.00741-3.93-0.00725-5.89-0.00219-3.01-0.0203-6.02-0.0393-9.03-0.00293-1.9-0.00492-3.81-0.00586-5.71-0.00719-0.905-0.0144-1.81-0.0218-2.74 0.00308-0.837 0.00615-1.67 0.00932-2.54-0.00143-0.739-0.00285-1.48-0.00432-2.24 0.473-3.5 2.02-3.81 5.31-4.02z" fill="#003C78"/>
<path transform="translate(509 1309)" d="m0 0c2.94 0.188 2.94 0.188 3.94 1.19 0.0927 1.35 0.117 2.71 0.114 4.06-7.55e-5 0.861-1.51e-4 1.72-2.29e-4 2.61-0.00516 0.935-0.0103 1.87-0.0156 2.83-0.00141 0.953-0.00283 1.91-0.00429 2.89-0.00562 3.06-0.0182 6.11-0.0309 9.17-0.00501 2.07-0.00958 4.13-0.0137 6.2-0.0111 5.08-0.0283 10.2-0.0488 15.2-6.15 0.0977-6.15 0.0977-8 0-2.14-2.14-1.16-7.03-1.17-10-0.00333-0.904-0.00666-1.81-0.0101-2.74-0.00507-1.92-0.00741-3.83-0.00725-5.75-0.00219-2.94-0.0203-5.88-0.0393-8.82-0.00293-1.86-0.00492-3.71-0.00586-5.57-0.00719-0.883-0.0144-1.77-0.0218-2.68 0.0313-8.32 0.0313-8.32 5.31-8.64z" fill="#003C7A"/>
<path transform="translate(889 1209)" d="m0 0c2.94 0.188 2.94 0.188 3.94 1.19 0.0927 1.35 0.117 2.71 0.114 4.06-7.55e-5 0.861-1.51e-4 1.72-2.29e-4 2.61-0.00516 0.935-0.0103 1.87-0.0156 2.83-0.00141 0.953-0.00283 1.91-0.00429 2.89-0.00562 3.06-0.0182 6.11-0.0309 9.17-0.00501 2.07-0.00958 4.13-0.0137 6.2-0.0111 5.08-0.0283 10.2-0.0488 15.2-6.15 0.0977-6.15 0.0977-8 0-2.14-2.14-1.16-7.03-1.17-10-0.00333-0.904-0.00666-1.81-0.0101-2.74-0.00507-1.92-0.00741-3.83-0.00725-5.75-0.00219-2.94-0.0203-5.88-0.0393-8.82-0.00293-1.86-0.00492-3.71-0.00586-5.57-0.00719-0.883-0.0144-1.77-0.0218-2.68 0.0313-8.32 0.0313-8.32 5.31-8.64z" fill="#003C79"/>
<path transform="translate(709 1209)" d="m0 0c2.94 0.188 2.94 0.188 3.94 1.19 0.0927 1.35 0.117 2.71 0.114 4.06-7.55e-5 0.861-1.51e-4 1.72-2.29e-4 2.61-0.00516 0.935-0.0103 1.87-0.0156 2.83-0.00141 0.953-0.00283 1.91-0.00429 2.89-0.00562 3.06-0.0182 6.11-0.0309 9.17-0.00501 2.07-0.00958 4.13-0.0137 6.2-0.0111 5.08-0.0283 10.2-0.0488 15.2-6.15 0.0977-6.15 0.0977-8 0-2.14-2.14-1.16-7.03-1.17-10-0.00333-0.904-0.00666-1.81-0.0101-2.74-0.00507-1.92-0.00741-3.83-0.00725-5.75-0.00219-2.94-0.0203-5.88-0.0393-8.82-0.00293-1.86-0.00492-3.71-0.00586-5.57-0.00719-0.883-0.0144-1.77-0.0218-2.68 0.0313-8.32 0.0313-8.32 5.31-8.64z" fill="#003C7A"/>
<path transform="translate(576 297)" d="m0 0c1.12 1.74 1.12 1.74 0.809 4.43-0.227 0.763-0.454 1.53-0.688 2.31-1.22-0.108-1.22-0.108-2.46-0.219-18.8-1.77-18.8-1.77-37.2 1.56-2.58 0.736-4.63 0.907-7.3 0.656-0.66-0.66-1.32-1.32-2-2 0.0625-1.94 0.0625-1.94 1-4 9.81-8.18 37.2-9.93 47.9-2.74z" fill="#003C7A"/>
<path transform="translate(496,297)" d="m0 0c2.36 1.94 2.36 1.94 4 4-0.25 2.75-0.25 2.75-1 5-4.08-0.437-7.77-0.936-11.7-2.03-4.38-1.12-8.51-1.24-13-1.16-0.781 5e-3 -1.56 0.00999-2.37 0.0151-5.57 0.0654-11.1 0.449-16.6 1.15-2.29 0.0234-2.29 0.0234-5.29-1.98 0.266-1.89 0.266-1.89 1-4 1.67-1.01 1.67-1.01 3.75-1.69 0.675-0.231 1.35-0.461 2.05-0.699 11.9-3.31 27.7-3.32 39.2 1.39z" fill="#003C7A"/>
<path transform="translate(554 277)" d="m0 0c1.42-0.0184 1.42-0.0184 2.87-0.0371 6.28-0.0129 12.5 0.32 18.5 2.22 0.66 0.66 1.32 1.32 2 2-0.375 3.12-0.375 3.12-1 6-0.62-0.0606-1.24-0.121-1.88-0.184-1.91-0.181-3.82-0.351-5.73-0.516-2.33-0.206-4.65-0.439-6.97-0.695-7.91-0.753-14.5-0.34-22.2 1.7-4.11 0.882-8.36 1.62-12.2-0.309 0.168-2.36 0.168-2.36 1-5 2.36-1.33 2.36-1.33 5.31-2.25 1.45-0.472 1.45-0.472 2.93-0.953 5.95-1.72 11.2-1.98 17.4-1.98z" fill="#003C7A"/>
<path transform="translate(474 277)" d="m0 0c1.43-0.0174 1.43-0.0174 2.89-0.0352 7.7 0.0312 16.4 0.472 22.3 5.91 1.31 2.5 1.31 2.5 1.31 5.5-5.3 0.318-9.81-0.312-15-1.5-8.47-1.9-14.9-1.6-23.4 0.0469-4.76 0.844-7.49 1.16-11.6-1.55 0.33-1.65 0.66-3.3 1-5 7.62-2.45 14.5-3.47 22.5-3.38z" fill="#003C79"/>
<path transform="translate(474 329)" d="m0 0c1.46 0.00628 1.46 0.00628 2.94 0.0127 15.7 0.247 15.7 0.247 21.5 5.27 0.565 0.67 1.13 1.34 1.71 2.03-0.25 2.25-0.25 2.25-1 4-3.98 0.166-6.87 0.0351-10.8-0.996-4.06-1.06-7.81-1.23-12-1.2-1.05 0.00424-1.05 0.00424-2.12 0.00858-2.2 0.0111-4.4 0.0361-6.6 0.0617-1.51 0.01-3.01 0.0192-4.52 0.0273-3.66 0.0219-7.32 0.0563-11 0.0977-0.66-1.32-1.32-2.64-2-4 7.36-5.06 15.2-5.36 23.8-5.31z" fill="#003C79"/>
<path transform="translate(554 329)" d="m0 0c0.929-0.00322 1.86-0.00645 2.81-0.00977 14.1 0.109 14.1 0.109 18.9 3.65 1.19 1.68 1.19 1.68 0.875 3.86-0.227 0.598-0.454 1.2-0.688 1.81-0.927-0.0105-1.85-0.0209-2.81-0.0317-3.47-0.0343-6.95-0.0593-10.4-0.0781-1.5-0.01-2.99-0.0236-4.49-0.041-2.16-0.0245-4.33-0.0357-6.49-0.0444-1.3-0.0105-2.6-0.0209-3.94-0.0317-4.23 0.25-7.76 1.14-11.8 2.23-6.38 0.309-6.38 0.309-9-1 0.188-1.81 0.188-1.81 1-4 7.25-5.85 17.1-6.47 26.1-6.31z" fill="#003C7A"/>
<path transform="translate(559 311)" d="m0 0c1.05 0.0575 1.05 0.0575 2.12 0.116 4.92 0.354 9.48 1.14 14.2 2.63 2 3 2 3 1.62 5.19-0.206 0.598-0.413 1.2-0.625 1.81-4.15 0.0846-8.14 0.132-12.2-0.5-9.05-1.21-17.2-0.787-26 1.84-3 0.715-5.68 0.765-8.75 0.656-0.66-1.32-1.32-2.64-2-4 3.39-3.8 7.19-4.69 12-6 0.804-0.22 1.61-0.441 2.44-0.668 5.83-1.32 11.3-1.41 17.2-1.08z" fill="#003C7A"/>
<path transform="translate(498,316)" d="m0 0c2 3 2 3 1.62 5.19-0.206 0.598-0.413 1.2-0.625 1.81-4.72-0.367-9.18-0.768-13.8-2.06-7.81-2.14-16.4-1.29-24.2 0.0625-1.62 0.0621-3.25 0.0871-4.88 0.0625-0.781-0.00902-1.56-0.018-2.37-0.0273-0.58-0.0116-1.16-0.0232-1.76-0.0352-0.66-1.32-1.32-2.64-2-4 2.72-3.74 6.69-4.29 11-5 12.4-1.59 25.6-2.02 37 4z" fill="#003C7A"/>
<path transform="translate(667,452)" d="m0 0c7.19-0.111 14.4-0.0469 21.6 0.25 0.678 0.0141 1.36 0.0282 2.05 0.0427 3.46 0.174 5.14 0.509 7.85 2.75 0.507 0.645 1.01 1.29 1.54 1.95-1 1-1 1-4.73 1.07-1.67-0.0206-3.34-0.0455-5.02-0.0737-1.82-0.0175-3.65-0.0344-5.47-0.0508-2.88-0.0308-5.76-0.0661-8.64-0.113-2.78-0.0427-5.55-0.0659-8.33-0.0864-0.847-0.0186-1.69-0.0372-2.57-0.0564-5.78-0.0244-11 0.754-16.2 3.31-3.05 3.27-3.89 5.21-4.5 9.62 0.235 3.37 0.235 3.37 2.12 5.62 4.58 3.38 8.72 5.08 14.4 5.75-0.33 0.99-0.66 1.98-1 3-6.76-0.69-11.8-2.03-16.9-6.69-2.99-4.8-2.65-8.14-1.68-13.4 1.38-4.15 3.14-5.65 6.98-7.79 1.31-0.584 2.63-1.15 3.95-1.69 0.64-0.264 1.28-0.528 1.94-0.799 4.6-1.68 8-1.66 12.7-0.638v-2z" fill="#023C76"/>
<path transform="translate(542,520)" d="m0 0c0.883 0.177 1.77 0.353 2.68 0.535 1.77 0.354 3.54 0.708 5.31 1.06 0.996 0.199 0.996 0.199 2.01 0.402 1 3 1 3 0.5 6.06-1.5 2.94-1.5 2.94-4.5 4.31-7.76 1.56-15.9 1.35-23-2.38-2-3-2-3-1.62-5.69 0.206-0.763 0.413-1.53 0.625-2.31 0.687-0.133 1.37-0.266 2.08-0.402 1.35-0.265 1.35-0.265 2.73-0.535 1.34-0.261 1.34-0.261 2.71-0.527 6.68-1.44 6.68-1.44 10.5-0.535z" fill="#E97E08"/>
<path transform="translate(522,1232)" d="m0 0c1 1 1 1 1.38 4.75-0.0261 3.63-0.305 4.16-2.75 7.19-3.81 2.99-5.78 3.44-10.6 3.06-3.24-1.37-4.61-2.18-6.12-5.38 0.125-2.62 0.125-2.62 2.25-5.31 5.31-4.27 9.25-4.64 15.9-4.31z" fill="#FDFDFD"/>
<path transform="translate(651 1333)" d="m0 0c0.901 0.00902 1.8 0.018 2.73 0.0273 0.687 0.0116 1.37 0.0232 2.08 0.0352 0.977 3.73 1.15 5.6-0.25 9.25-1.75 2.75-1.75 2.75-4.75 4.75-3.37 0.484-6.63 0.475-10 0-2.62-2-2.62-2-4-4 1.47-5.5 1.47-5.5 3.94-7.81 3.52-2.02 6.27-2.3 10.2-2.25z" fill="#FDFDFD"/>
<path transform="translate(314,1232)" d="m0 0c1.55 3.1 1.29 5.58 1 9-1.31 2.94-1.31 2.94-4 5-4.73 0.754-9.23 1.15-13.3-1.53-0.547-0.485-1.09-0.969-1.66-1.47 0.262-3.84 0.544-5.54 3.31-8.31 4.92-3.09 9-2.78 14.7-2.69z" fill="#FDFDFD"/>
<path transform="translate(835 1315)" d="m0 0c3.81 2.11 5.48 4.01 7.94 7.62v4h-20l-1-2c3.05-5.16 6.35-10.4 13.1-9.62z" fill="#FDFDFD"/>
<path transform="translate(786,496)" d="m0 0c0 3 0 3-1.18 4.46-7.14 6.2-14.5 8.58-23.8 9.54-1.35 0.635-2.68 1.3-4 2-4.86 1.13-10 1.56-15 1-0.99-0.66-1.98-1.32-3-2 0.33-0.66 0.66-1.32 1-2 2.34-0.547 2.34-0.547 5.43-0.965 1.12-0.16 2.25-0.321 3.41-0.486 1.19-0.16 2.37-0.321 3.6-0.486 15.3-1.98 15.3-1.98 29.2-8.25 0.838-0.53 1.68-1.06 2.54-1.61 0.909-0.597 0.909-0.597 1.84-1.21z" fill="#043D76"/>
<path transform="translate(791,1215)" d="m0 0c2.81 2.44 2.81 2.44 5 5 0.33 0.33 0.66 0.66 1 1v5h-19c-1-3-1-3 0.125-5.5 3.46-4.61 7.11-6.46 12.9-5.5z" fill="#FDFDFD"/>
<path transform="translate(681 315)" d="m0 0c3.43 1.31 4.99 3.16 7.36 5.93 0.779 0.896 1.56 1.79 2.36 2.71 2.95 3.66 2.99 5.7 2.89 10.3-5.45-0.136-8.32-2.39-12.2-5.95-2.76-3.09-4.23-6.24-5.84-10.1 1.75-2.31 2.43-3 5.39-3z" fill="#FDFDFD"/>
<path transform="translate(732,346)" d="m0 0c-0.33 7.6-2.13 14-5 21-2.97-0.321-4.62-0.67-6.9-2.66-2.01-4.29 0.0723-8.06 1.52-12.3 2.19-4.79 4.85-7.87 10.4-6.02z" fill="#FDFDFD"/>
<path transform="translate(743,300)" d="m0 0c1 1 1 1 1.06 4.56-0.0206 1.13-0.0412 2.27-0.0625 3.44-13.8 2.57-13.8 2.57-20 2-2-1.5-2-1.5-3-3 4.15-6.22 14.8-7.82 22-7z" fill="#FDFDFD"/>
<path transform="translate(376 1190)" d="m0 0c3.44 0.188 3.44 0.188 4.44 1.19 0.0718 1.52 0.0839 3.04 0.0625 4.56-0.00902 0.826-0.018 1.65-0.0273 2.5-0.0116 0.638-0.0232 1.28-0.0352 1.93-1.48 0.0269-2.96 0.0463-4.44 0.0625-1.24 0.0174-1.24 0.0174-2.5 0.0352-2.07-0.0977-2.07-0.0977-3.07-1.1-0.188-3.44-0.188-3.44 0-7 2-2 2-2 5.56-2.19z" fill="#003C78"/>
<path transform="translate(709 1190)" d="m0 0c2.94 0.188 2.94 0.188 3.94 1.19 0.0718 1.52 0.0839 3.04 0.0625 4.56-0.00902 0.826-0.018 1.65-0.0273 2.5-0.0116 0.638-0.0232 1.28-0.0352 1.93-6.15 0.0977-6.15 0.0977-8 0-1-1-1-1-1.19-4.44 0.237-4.51 0.69-5.47 5.25-5.75z" fill="#003C7B"/>
<path transform="translate(889 1190)" d="m0 0c2.94 0.188 2.94 0.188 3.94 1.19 0.0718 1.52 0.0839 3.04 0.0625 4.56-0.00902 0.826-0.018 1.65-0.0273 2.5-0.0116 0.638-0.0232 1.28-0.0352 1.93-3.38 0.125-3.38 0.125-7 0-2-2-2-2-2.25-5 0.348-4.17 1.13-4.93 5.31-5.19z" fill="#003C78"/>
<path transform="translate(512,1291)" d="m0 0c1 1 1 1 1.1 2.85l-0.0977 6.15c-6.05 0.195-6.05 0.195-8 0-0.66-0.66-1.32-1.32-2-2 0.25-3.06 0.25-3.06 1-6 2.73-1.37 4.98-1.13 8-1z" fill="#003C7A"/>
<path transform="translate(519,473)" d="m0 0c1.46-0.027 2.92-0.0464 4.38-0.0625 0.812-0.0116 1.62-0.0232 2.46-0.0352 2.16 0.0977 2.16 0.0977 4.16 1.1-0.33 1.98-0.66 3.96-1 6-7.82-1.92-7.82-1.92-10-5v-2z" fill="#003C7A"/>
<path transform="translate(738,313)" d="m0 0v2c0.99 0.33 1.98 0.66 3 1-1.37 3.16-1.99 3.99-5 6-2.12-0.188-2.12-0.188-4-1-0.33-0.99-0.66-1.98-1-3 4.75-5 4.75-5 7-5z" fill="#003C78"/>
<path transform="translate(714,346)" d="m0 0c3 1 3 1 4 3 0.0402 2.33 0.0432 4.67 0 7-2.48-0.99-2.48-0.99-5-2-0.33-2.31-0.66-4.62-1-7l2-1z" fill="#003C78"/>
<path transform="translate(694,313)" d="m0 0c2.19 0.312 2.19 0.312 4 1 0.33 1.98 0.66 3.96 1 6-3.69-0.498-5.6-1.1-8-4 1.25-1.56 1.25-1.56 3-3z" fill="#003C78"/>
<path transform="translate(351,1209)" d="m0 0h8c0.33 1.32 0.66 2.64 1 4-2.97-0.33-5.94-0.66-9-1v-3z" fill="#003C7B"/>
</svg>
