<?xml version="1.0" encoding="utf-8"?>
<!-- Generator: Adobe Illustrator 25.0.1, SVG Export Plug-In . SVG Version: 6.00 Build 0)  -->
<svg version="1.0" id="katman_1" width="56" height="56" xmlns="http://www.w3.org/2000/svg" xmlns:xlink="http://www.w3.org/1999/xlink" x="0px" y="0px"
	 viewBox="0 0 560 400" style="enable-background:new 0 0 560 400;" xml:space="preserve">
<style type="text/css">
	.st0{fill:#1D427C;}
	.st1{fill-rule:evenodd;clip-rule:evenodd;fill:#1D427C;}
	.st2{fill:#EC8023;}
	.st3{fill:#FFFFFF;}
	.st4{fill:#F19320;}
</style>
<g transform="matrix(.75939 0 0 .75939 99.9909 117.198)">
	<path class="st0" d="M183.7,129.6h5l11.3,20.6h0.1v-20.6h3.7v25.6H199l-11.6-21h-0.1v21h-3.7V129.6z"/>
	<path class="st0" d="M210.9,140.7c1.4-1.2,3.5-1.9,5.4-1.9c3.4,0,4.6,1.6,4.6,4.9c-1.4-0.1-2.3-0.1-3.7-0.1c-3.5,0-8.7,1.5-8.7,6.2
		c0,4.1,2.8,5.8,6.8,5.8c3.1,0,5-1.7,5.8-2.9h0.1v2.4h3.2c-0.1-0.6-0.1-1.5-0.1-3.7v-7.7c0-5.1-2.2-7.7-7.5-7.7
		c-2.4,0-4.4,0.7-6.2,1.8L210.9,140.7z M220.9,147.9c0,2.8-1.8,4.9-5.2,4.9c-1.6,0-3.5-1.1-3.5-3c0-3.3,4.6-3.6,6.5-3.6
		c0.7,0,1.5,0.1,2.2,0.1V147.9z"/>
	<path class="st0" d="M240.1,139.2h-4.9v10.2c0,2.2,1.3,3.3,2.9,3.3c1.1,0,1.8-0.3,2.3-0.7v2.9c-0.8,0.2-1.8,0.5-2.9,0.5
		c-3.5,0-5.7-1.7-5.7-5.4v-10.9h-4.2v-2.8h4.2v-4.3l3.4-1.1v5.4h4.9L240.1,139.2L240.1,139.2z"/>
	<path class="st0" d="M248.5,128.4h-3.9v3.9h3.9V128.4z M244.8,155.1h3.4v-18.7h-3.4V155.1z"/>
	<path class="st0" d="M253.3,145.8c0,5.3,3.9,9.8,9.5,9.8c5.6,0,9.5-4.4,9.5-9.8c0-5.7-3.8-9.8-9.5-9.8
		C257.1,136,253.3,140.1,253.3,145.8 M257,145.8c0-3.6,2.2-7,5.9-7c3.7,0,5.8,3.4,5.8,7c0,3.3-1.8,7-5.8,7
		C258.8,152.8,257,149.1,257,145.8"/>
	<path class="st0" d="M277,136.4h3.3v3h0.1c1-2.1,3.5-3.4,6.1-3.4c4.8,0,7,3,7,8v11.1H290v-9.7c0-4.4-0.9-6.5-4-6.7
		c-3.9,0-5.7,3.1-5.7,7.7v8.6H277L277,136.4z"/>
	<path class="st0" d="M300.4,140.7c1.4-1.2,3.5-1.9,5.4-1.9c3.4,0,4.6,1.6,4.6,4.9c-1.4-0.1-2.3-0.1-3.7-0.1c-3.5,0-8.7,1.5-8.7,6.2
		c0,4.1,2.8,5.8,6.8,5.8c3.1,0,5-1.7,5.8-2.9h0.1v2.4h3.2c-0.1-0.6-0.1-1.5-0.1-3.7v-7.7c0-5.1-2.2-7.7-7.5-7.7
		c-2.4,0-4.4,0.7-6.1,1.8L300.4,140.7z M310.4,147.9c0,2.8-1.8,4.9-5.2,4.9c-1.6,0-3.5-1.1-3.5-3c0-3.3,4.6-3.6,6.5-3.6
		c0.7,0,1.5,0.1,2.2,0.1L310.4,147.9z"/>
	<path class="st1" d="M320.1,127.7h3.4v27.5h-3.4V127.7z"/>
	<g>
		<path class="st0" d="M359.2,144.5c0,7.2-3.6,11-9.9,11s-9.9-3.9-9.9-11v-15h3.7v14.5c0,4.9,1.5,8.3,6.3,8.3c4.7,0,6.3-3.4,6.3-8.3
			v-14.5h3.7L359.2,144.5L359.2,144.5z"/>
		<path class="st0" d="M365.4,136.4h3.3v3h0.1c1-2.1,3.5-3.4,6.1-3.4c4.8,0,7,3,7,8v11.1h-3.4v-9.7c0-4.4-1-6.5-4-6.7
			c-3.9,0-5.7,3.1-5.7,7.7v8.6h-3.4V136.4z"/>
		<path class="st0" d="M391.9,132.3H388v-3.9h3.9V132.3z M388.2,136.4h3.4v18.7h-3.4V136.4z"/>
		<path class="st0" d="M406.2,155.1h-4.1l-6.7-18.7h3.8l5.1,15.2h0.1l5.2-15.2h3.4L406.2,155.1z"/>
		<path class="st0" d="M430.6,150.9c-0.8,0.7-3.5,1.9-5.7,1.9c-3.3,0-6.1-2.5-6.1-6.2H432c0-6-2-10.5-8.2-10.5
			c-5.3,0-8.8,3.9-8.8,9.4c0,6.1,3,10.1,9.7,10.1c3.1,0,4.6-0.7,5.9-1.2V150.9z M418.7,144c0.3-2.4,1.6-5.2,5-5.2
			c3,0,4.6,2.3,4.6,5.2H418.7z"/>
		<path class="st0" d="M436.6,136.4h3.2v2.9h0.1c0.9-1.9,2.9-3.3,4.9-3.3c1,0,1.5,0.1,2.3,0.3v3.1c-0.6-0.3-1.3-0.3-1.9-0.3
			c-3.1,0-5.1,2.9-5.1,7.6v8.5h-3.4L436.6,136.4L436.6,136.4z"/>
		<path class="st0" d="M449.5,151.4c1.3,0.9,3.3,1.3,4.3,1.3c1.6,0,3.5-0.7,3.5-2.7c0-3.4-8.1-3.1-8.1-8.4c0-3.9,2.9-5.7,6.6-5.7
			c1.6,0,2.9,0.3,4.3,0.7l-0.3,3c-0.8-0.5-2.8-1-3.6-1c-1.8,0-3.3,0.7-3.3,2.3c0,3.8,8.1,2.7,8.1,8.7c0,4-3.2,5.8-6.5,5.8
			c-1.8,0-3.5-0.2-5.1-1L449.5,151.4z"/>
		<path class="st0" d="M469.2,132.3h-3.9v-3.9h3.9V132.3z M465.5,136.4h3.4v18.7h-3.4V136.4z"/>
		<path class="st0" d="M485.2,139.2h-4.9v10.2c0,2.2,1.3,3.3,2.9,3.3c1.1,0,1.8-0.3,2.3-0.7v2.9c-0.8,0.2-1.8,0.5-2.9,0.5
			c-3.6,0-5.8-1.7-5.8-5.4v-10.9h-4.2v-2.8h4.2v-4.3l3.4-1.1v5.4h4.9V139.2z"/>
		<path class="st0" d="M488.1,160.2c0.4,0.1,1,0.3,1.6,0.3c3.1,0,4.1-4.2,4.1-4.6c0-0.4-0.4-1.4-0.7-2l-6.3-17.4h3.8l5,15.5h0.1
			l5.1-15.5h3.5l-6.9,19.1c-1.3,3.6-2.6,7.7-7.2,7.7c-1.1,0-1.7-0.1-2.3-0.3L488.1,160.2z"/>
		<path class="st0" d="M182.1,189c0,5.3,3.9,9.8,9.5,9.8c5.6,0,9.5-4.4,9.5-9.8c0-5.7-3.8-9.8-9.5-9.8
			C185.9,179.3,182.1,183.4,182.1,189 M185.8,189c0-3.6,2.2-7,5.9-7c3.7,0,5.8,3.4,5.8,7c0,3.3-1.8,7-5.8,7
			C187.6,196,185.8,192.4,185.8,189"/>
		<path class="st0" d="M208,182.5h-4.4v-2.8h4.4V178c0-4.5,1.2-7.5,6.3-7.5c0.9,0,1.6,0.1,2.3,0.2l-0.1,2.8
			c-0.4-0.2-1.1-0.2-1.7-0.2c-3,0-3.3,1.9-3.3,4.4v2h4.9v2.8h-4.9v15.9H208L208,182.5L208,182.5z"/>
		<path class="st0" d="M241.1,176.7c-1.9-0.7-2.9-1.1-4.8-1.1c-2.1,0-4.5,0.7-4.5,3.4c0,4.9,11,3.8,11,12.2c0,5.4-4.2,7.6-9.3,7.6
			c-1.8,0-3.6-0.5-5.2-1.1l0.4-3.4c1.2,0.5,3.4,1.2,5.3,1.2c2.1,0,5-1.2,5-4.2c0-5.7-11-4.1-11-12.1c0-4.6,3.6-7,8.2-7
			c1.7,0,3.7,0.3,5.4,0.9L241.1,176.7z"/>
		<path class="st0" d="M251.6,175.5h-3.9v-3.9h3.9V175.5z M247.9,179.7h3.4v18.7h-3.4V179.7z"/>
		<path class="st0" d="M257.6,179.7h3.3v3h0.1c1-2.1,3.5-3.4,6.1-3.4c4.8,0,7,3,7,8v11.1h-3.4v-9.7c0-4.4-0.9-6.5-4-6.7
			c-3.9,0-5.7,3.1-5.7,7.7v8.6h-3.4V179.7z"/>
		<path class="st0" d="M296.5,179.7h-3.2v2.8h-0.1c-1-2-2.8-3.2-6.1-3.2c-5.6,0-8.3,5.1-8.3,9.9c0,4.8,2.6,9.2,8,9.2
			c2.4,0,4.8-0.9,6.3-2.9h0.1v1.8c0,4-2.2,6.4-5.8,6.4c-2.5,0-4.1-0.5-6.7-1.7l-0.4,3.2c3,1,4.7,1.3,6.7,1.3c6.7,0,9.6-3.3,9.6-8.9
			L296.5,179.7z M287.6,195.6c-3.2,0-5.2-3.1-5.2-6.6c0-3.2,1.7-7,5.2-7c3.7,0,5.4,3.3,5.4,7.2C293.1,192.7,290.8,195.6,287.6,195.6
			"/>
		<path class="st0" d="M303.4,184c1.4-1.2,3.5-1.9,5.4-1.9c3.4,0,4.6,1.6,4.6,4.9c-1.3-0.1-2.3-0.1-3.7-0.1c-3.6,0-8.7,1.5-8.7,6.1
			c0,4.1,2.8,5.8,6.8,5.8c3.1,0,5-1.7,5.8-2.9h0.1v2.4h3.2c-0.1-0.5-0.1-1.5-0.1-3.7V187c0-5.1-2.2-7.7-7.5-7.7
			c-2.4,0-4.4,0.7-6.1,1.8L303.4,184z M313.4,191.1c0,2.8-1.8,4.9-5.2,4.9c-1.6,0-3.5-1.1-3.5-3c0-3.3,4.6-3.6,6.5-3.6
			c0.7,0,1.5,0.1,2.2,0.1L313.4,191.1L313.4,191.1z"/>
		<path class="st0" d="M322.7,206.1h3.4v-10.2h0.1c1.1,1.7,2.9,3,6.2,3c5.6,0,8-5,8-10.1c0-5-2.6-9.4-8.1-9.4
			c-3.3,0-5.4,1.7-6.3,3.1H326v-2.6h-3.3L322.7,206.1z M336.8,189c0.1,2.9-1.5,7.1-5.2,7.1c-3.9,0-5.5-3.8-5.5-7c0-3.5,1.8-7,5.5-7
			C335.4,182.1,336.9,185.6,336.8,189"/>
		<path class="st0" d="M343.8,189c0,5.3,3.9,9.8,9.5,9.8c5.6,0,9.5-4.4,9.5-9.8c0-5.7-3.8-9.8-9.5-9.8
			C347.6,179.3,343.8,183.4,343.8,189 M347.5,189c0-3.6,2.2-7,5.9-7c3.7,0,5.8,3.4,5.8,7c0,3.3-1.8,7-5.8,7
			C349.3,196,347.5,192.4,347.5,189"/>
		<path class="st0" d="M367.4,179.7h3.2v2.9h0.1c0.9-1.9,2.9-3.3,4.9-3.3c1,0,1.5,0.1,2.3,0.3v3.1c-0.6-0.3-1.3-0.3-1.9-0.3
			c-3.1,0-5.1,2.9-5.1,7.6v8.5h-3.4L367.4,179.7z"/>
		<path class="st0" d="M396,194.2c-0.8,0.7-3.5,1.9-5.7,1.9c-3.3,0-6.2-2.5-6.2-6.2h13.3c0-6-2-10.5-8.2-10.5
			c-5.3,0-8.8,3.9-8.8,9.4c0,6.1,3,10.1,9.7,10.1c3.1,0,4.6-0.7,5.9-1.2V194.2z M384.1,187.2c0.3-2.4,1.6-5.2,5-5.2
			c3,0,4.6,2.3,4.6,5.2H384.1z"/>
		<path class="st0" d="M420.3,78.6c7,6.5,20.8,12.4,37.7,12.6c14.8,0.3,26.7-4.2,27.5-16.5c1.6-26.5-66.5-15.9-63.9-60.7
			c1.3-22.4,23.6-29.8,47.6-29.4c13,0.2,26,3.3,33.1,6.9l0,15.9c-8.7-5.9-20.8-9.7-30.8-9.9c-15.2-0.3-27.3,2.5-27.5,13.7
			c-0.4,23.2,68.2,17.7,65.6,62.1c-1.5,25-25.8,32.7-51.2,32.2c-14.6-0.2-29-3.2-38-7.8L420.3,78.6z"/>
		<path class="st0" d="M355.9,105.6c-31.6,0-49.8-14.2-49.8-43.4v-74.1h23.7l0,74.1c0,18.2,8.7,29.2,26.1,29.2
			c17.4,0,26.1-11,26.1-29.2l0-74.1h23.7v74.1C405.7,91.4,387.5,105.6,355.9,105.6"/>
		<path class="st0" d="M267.6-11.9v83.5L213.3-6c-2.6-3.6-6.8-5.9-11.5-5.9h-18V102h15.8V18.4l54.2,77.4c2.6,3.7,6.8,6.2,11.7,6.2
			h17.9V-11.9L267.6-11.9z"/>
		<path class="st0" d="M156.5,105.9V-11.9h-192V106c0,0.1,0,0.4,0,0.9c0,5.6,1.2,35,24.9,72.3c25.9,40.8,68.6,53.5,70.4,54l0.6,0.2
			l0.6-0.2c1.8-0.5,44.6-13.1,70.5-54C157.4,138.6,156.5,107.3,156.5,105.9"/>
		<path class="st2" d="M54.4,2.3C54,2.2,46.2,0.8,36.9,0.8c-7.4,0-14.1,2.2-17,3.4c-2.9-1.1-9.6-3.4-17-3.4
			c-9.3,0-17.1,1.4-17.5,1.4l-1.1,0.2v49.7l1.5-0.3c0.1,0,6.5-1.4,16.1-1.4c7.2,0,14.6,2,17.5,3l0.4,0.2l0.4-0.2
			c2.9-1,10.3-3,17.5-3c9.5,0,16,1.4,16,1.4l1.6,0.3V2.5L54.4,2.3z"/>
		<path class="st3" d="M18.7,6.5c-3-1.1-9.1-3-15.7-3c-7.2,0-13.6,0.9-16,1.2v37.6c2.5-0.4,7.9-1.2,15.1-1.2
			c6.4,0,12.9,1.5,16.6,2.6L18.7,6.5L18.7,6.5z"/>
		<path class="st3" d="M37,3.4c-6.8,0-12.9,2-15.8,3.1v37.2c3.8-1.2,10.3-2.7,16.8-2.7c7.2,0,12.5,0.7,15,1.2V4.7
			C50.5,4.3,44.2,3.4,37,3.4"/>
		<path class="st0" d="M-5.9,9.7c-0.9,0.2-1.4,1.1-1.2,1.9c0.3,0.8,1.3,1.2,2.2,1c0,0,4.8-0.9,8.9-0.9c3.7,0,7.8,1.7,7.9,1.7
			c0.9,0.3,1.9-0.1,2.2-0.9c0.3-0.8-0.1-1.7-1-2C12.9,10.5,8.3,8.7,4,8.7C-0.6,8.7-5.7,9.7-5.9,9.7"/>
		<path class="st0" d="M-5.9,17.2c-0.9,0.3-1.4,1.1-1.2,1.9c0.3,0.8,1.3,1.2,2.2,1c0,0,4.8-0.8,8.9-0.8c3.7,0,7.8,1.7,7.9,1.7
			c0.9,0.3,1.9-0.1,2.2-0.9c0.3-0.8-0.1-1.7-1-1.9C12.9,18,8.3,16.2,4,16.2C-0.6,16.2-5.7,17.1-5.9,17.2"/>
		<path class="st0" d="M-5.9,24.6c-0.9,0.2-1.4,1.1-1.2,1.9c0.3,0.8,1.3,1.2,2.2,1c0,0,4.8-0.9,8.9-0.9c3.7,0,7.8,1.7,7.9,1.7
			c0.9,0.3,1.9-0.1,2.2-0.9c0.3-0.8-0.1-1.7-1-1.9c-0.2-0.1-4.8-1.9-9.1-1.9C-0.6,23.6-5.7,24.6-5.9,24.6"/>
		<path class="st0" d="M-5.9,32.1c-0.9,0.3-1.4,1.1-1.2,1.9c0.3,0.8,1.3,1.2,2.2,1c0,0,4.8-0.9,8.9-0.9c3.7,0,7.8,1.7,7.9,1.7
			c0.9,0.3,1.9-0.1,2.2-0.9c0.3-0.8-0.1-1.7-1-1.9c-0.2-0.1-4.8-1.9-9.1-1.9C-0.6,31.1-5.7,32-5.9,32.1"/>
		<path class="st0" d="M46,9.7c0.9,0.2,1.4,1.1,1.2,1.9c-0.3,0.8-1.3,1.2-2.2,1c0,0-4.8-0.9-8.9-0.9c-3.7,0-7.8,1.7-7.9,1.7
			c-0.9,0.3-1.9-0.1-2.2-0.9c-0.3-0.8,0.1-1.7,1-2c0.2-0.1,4.8-1.9,9.1-1.9C40.7,8.7,45.8,9.7,46,9.7"/>
		<path class="st0" d="M46,17.2c0.9,0.3,1.4,1.1,1.2,1.9c-0.3,0.8-1.3,1.2-2.2,1c0,0-4.8-0.8-8.9-0.8c-3.7,0-7.8,1.7-7.9,1.7
			c-0.9,0.3-1.9-0.1-2.2-0.9c-0.3-0.8,0.1-1.7,1-1.9c0.2-0.1,4.8-1.9,9.1-1.9C40.7,16.2,45.8,17.1,46,17.2"/>
		<path class="st0" d="M46,24.6c0.9,0.2,1.4,1.1,1.2,1.9c-0.3,0.8-1.3,1.2-2.2,1c0,0-4.8-0.9-8.9-0.9c-3.7,0-7.8,1.7-7.9,1.7
			c-0.9,0.3-1.9-0.1-2.2-0.9c-0.3-0.8,0.1-1.7,1-1.9c0.2-0.1,4.8-1.9,9.1-1.9C40.7,23.6,45.8,24.6,46,24.6"/>
		<path class="st0" d="M46,32.1c0.9,0.3,1.4,1.1,1.2,1.9c-0.3,0.8-1.3,1.2-2.2,1c0,0-4.8-0.9-8.9-0.9c-3.7,0-7.8,1.7-7.9,1.7
			c-0.9,0.3-1.9-0.1-2.2-0.9c-0.3-0.8,0.1-1.7,1-1.9c0.2-0.1,4.8-1.9,9.1-1.9C40.7,31.1,45.8,32,46,32.1"/>
		<path class="st3" d="M127.7,176.6c-23.3,36.7-61.9,50.1-67.2,51.8c-5.3-1.7-43.8-15.1-67.1-51.8c-23.3-36.7-24.2-66.2-24.2-70.2
			c0-0.3,0-0.4,0-0.5V64.2h182.6v41.6c0,0,0,0.2,0,0.5C151.9,110.4,151,139.9,127.7,176.6"/>
		<path class="st0" d="M143.3,98c-0.9-3.4-2.7-5-5-6.2c-6.4-3.4-14.7-1-22,1.5c-5.5,1.9-7.2,2.4-13.4,3.4
			c-4.7,0.7-20.5,2.8-25.4-1.4c-0.7-0.6-1.4-1.9-1.5-2.7c-0.1-1.7,0.6-3.8,1.2-4.4c1.3-1.4,4.2-2,9-2l12.2,0.2
			c0.8,1,2.7,2.6,7.7,3.6c7.9,1.7,16.5-1.1,16.5-1.1s-1.4-0.3-2.6-1.2c-1.1-0.8-1-2-1-2s1.7,0.8,4.3,0.8c3.1-0.1,4.6-1.6,7.6-2.3
			c2.9-0.7,6.2-0.1,6.2-0.1s-3-3.2-5.9-3.7c-2.9-0.6-6.6,0.2-6.6,0.2s0.9-0.4,2-1.4c0.9-0.8,1.1-2.1,1.1-2.1s-3.5,1.4-7.1,1.2
			c-3.6-0.2-3.3-1.5-10.2-1.7c-5.3-0.1-9.6,3-11.4,4.5c-5.6-0.4-10-0.6-12.6-0.6c-7.1,0-11.3,1.2-13.8,3.9c-2.1,2.3-3,5.3-2.7,8.8
			c0.2,2.8,1.5,5.1,3.7,6.9c6.7,5.5,24.5,3.8,30.9,2.7c7.1-1.3,9.2-1.8,13.3-3.2c0,0,0.2-0.1,0.2-0.1c3.2-1.1,12.8-4.3,16.9-2.1
			c0.8,0.4,1.4,1.2,1.7,2.5c0.2,0.6,0.2,1.1,0.2,1.5c0,0.8-0.3,1.5-0.8,2.2c-3.7,4.5-17.6,5.3-23.6,5.6c-0.7-0.2-4.7-1.1-10-1.1
			c-3.6,0-6.6,0.2-9.8,0.4c-5.8,0.4-11.8,0.9-21.7-0.2c-4.6-0.5-8.9-1.4-12.2-2.3c-0.2-1.2-0.7-2.4-2-3.8c2.4,0.8,5.5-1.9,6.4-3.2
			c0-0.1-4.2-1.2-4.5-4c0-0.1,3,0.2,4.2-3.9c-3-1.6-2.1-2.2-3.5-4.2c-1.3-1.8-3.1-2.7-5.4-2.6c0.9-0.1,1,0,2-0.5
			c1.3-0.7,2.2-2.4,3.5-2.4c-2.6-4.1-9.6-4.6-12.5-3.8c0.7-0.9,1.9-2,1.9-3.2c-3.9,1.1-7.7-0.9-11.6-0.2c-3.2,0.6-5.1,1.9-6.1,5H31
			c-1-3.1-2.9-4.4-6.1-5c-3.9-0.7-7.7,1.3-11.6,0.2c0,1.3,1.2,2.3,1.9,3.2c-2.9-0.9-9.9-0.3-12.5,3.8c1.3-0.1,2.2,1.7,3.5,2.4
			c1.2,0.6,1.4,0.5,2,0.5c-2.3-0.1-4.1,0.8-5.4,2.6c-1.4,2-0.5,2.6-3.5,4.2c1.3,4.1,4.3,3.8,4.2,3.9c-0.3,2.7-4.5,3.9-4.5,4
			c0.9,1.3,4,3.9,6.4,3.2c-2,2.2-2.3,3.9-1.8,6.1c-3-2.3-6-4.9-7.6-7c-0.4-0.5-1.6-4.5-2.4-7.1l-0.6-2.1l-0.3-1.1
			c-1-3.5-1.9-6.4-3.5-6.8c-0.9-0.2-1.7-0.3-2.4-0.2c-0.5-0.9-1.3-1.8-2.2-2c-1.8-0.6-2.7-0.2-2.7-0.2s1.5,1.1,2,2.2
			c0.1,0.3,0.2,0.6,0.3,0.8c-0.3,0.2-0.6,0.4-0.9,0.6l-0.1,0.1c-0.2,0.2-0.4,0.4-0.7,0.6c-0.1,0-0.3-0.1-0.4-0.1
			c-1.9-0.3-2.7,0.3-2.7,0.3s1,0.5,1.8,1.2c-0.7,0.9-1.2,2.1-1.2,3.6c0,0.1,0,0.3,0,0.4c-1.8,0.1-2.5,0.8-2.5,0.8s1.8,0.5,2.6,1.3
			c0.1,0.1,0.2,0.2,0.3,0.3c-0.1,0.1-0.1,0.2-0.1,0.2c-0.4,0.6-0.5,1.2-0.5,1.9c0,1.6,0.9,3.3,2.1,4.4c0,0,3.3,2.7,3.6,3
			c1.3,2.9,2.7,5.4,3.7,6.5c0.3,0.4,2.3,3.8,4.4,7.5c0.3,0.5,0.6,1,0.9,1.5c0.5,2.2,1,5,1.2,7.2c0.4,3.9,0,8.4,0,8.4
			s2.6-0.1,3.7-1.8c0,0,0.9,2.7,0.8,5.9c-0.1,2.3-0.7,5.5-0.7,5.5s2.5-1.3,4.4-3c0.9-0.8,1.9-2.2,2.5-3.1c2.1,1.3,8-0.8,10.9-2
			c0.6,1.2,1.4,2.5,2.5,3.9c0.4-1.8,2.3-2.7,3.2-4.1c0.3,0,0.5,0,0.8,0c0.1,1.9-0.5,3.8,1.4,7.4c0.5,1,3.1,4.8,4.9,6.8
			c-0.7,3.3-2,9.3-3.4,14.1c-1.6,5.6-2.8,8.4-3.6,9.7c-2.1,0.1-6,0.2-7.2,0.2c-2.9-0.1-5.1,0.5-6.4,1.8c-0.1,0.1-0.2,0.2-0.3,0.3
			c-1,0.1-2.2,0.5-2.8,1.2c-1.3,1.4-1.3,2.4-1.3,2.4s1.6-0.9,2.8-0.9c0.1,0,0.2,0,0.3,0v0.2c0,0.3,0.2,0.7,0.5,1.3
			c-0.2,0.1-0.4,0.3-0.5,0.5c-1.2,1.5-1.1,2.5-1.1,2.5s1.5-1,2.7-1.1c0.4,0.6,0.8,1.2,1.2,1.8c-0.1,0.1-0.1,0.1-0.2,0.2
			c-1.1,1.6-0.9,2.6-0.9,2.6s1.2-0.9,2.3-1.2c0.4,0.4,0.8,0.8,1.1,1.1c1.8,1.6,6.1,0.5,11.7-0.9l3.4-0.8c2.4-0.5,3.9-1.4,5-3.2
			c0.3-0.4,0.5-1.1,0.9-2.3l0.3-1c0.8-2.2,1.4-3.5,2.9-6c0.1-0.1,1.5-2.5,3.6-5.8c1.8-1.5,4-3.2,5.5-4.3c2.4-1.6,7.2-4.1,7.2-4.1
			s-1.3-2.1-3.2-2.4c0,0,2.4-2.5,4.5-3.4c2.3-1,5.3-1.6,5.3-1.6s-1.1-2.2-2.8-3.3c0.7-0.2,1.3-0.6,2.1-1.2c4-2.6,7-2.5,9.8-1.7
			c0.1-1.8-0.3-2.9-1.9-4c1.3-0.6,2.7-1,4.1-1.4c0.9,1.6,2,3.3,2.4,4c2.1,2.9,5.2,7,7.7,9.5c0.1,0.1,0.1,0.2,0.1,0.3
			c0,1.1-1.3,4-2,5.7l-0.6,1.4c0,0-2.5,6-3.3,7.7c-1.5,0.1-5.8,0.3-7.3,0.2c-2.9-0.1-5,0.5-6.3,1.8c-0.2,0.2-0.3,0.3-0.4,0.5
			c-1.1,0.2-2.3,0.6-3,1.4c-1.2,1.5-1.1,2.5-1.1,2.5s1.5-1,2.7-1.1c0.2,0,0.4,0,0.5,0c0,0.3,0.2,0.8,0.5,1.3
			c-0.3,0.2-0.5,0.4-0.7,0.7c-1.1,1.6-0.9,2.6-0.9,2.6s1.4-1.1,2.6-1.3c0,0,0.1,0,0.1,0c0.3,0.4,0.6,0.9,0.9,1.3
			c-0.1,0.1-0.2,0.2-0.3,0.4c-1.1,1.6-0.9,2.6-0.9,2.6s1.4-1.1,2.6-1.3c0.4,0.4,0.7,0.8,1.1,1.1c1.7,1.5,5.3,0.6,10.2-0.8l3.5-0.9
			c2.4-0.4,3.8-1.4,4.9-3.2l0.9-2c0.4-1,0.9-2.1,1.3-2.7c0.6-0.9,1.2-2,1.8-3.1c0.8-0.7,1.6-1.3,2.1-1.8c1.6-1.2,5.5-3.4,5.5-3.4
			s-0.8-1.7-2.4-1.9c0,0,1.6-1.8,3.5-2.9c1.4-0.8,4.1-1.3,4.1-1.3s-1.9-1.6-3.3-2.2c-0.6-0.2-1.3-0.4-2-0.5
			c-0.1-0.8-0.5-1.7-1.3-2.9c-1.4-2.2,0.6-6.8,2.1-9.4c0.7,1,2.1,2.8,4.3,5.2c0,0,7.1,7.7,8.6,9.5c-0.3,1.2-1.3,5.1-2.9,9.4
			c-1.1,3.1-2.7,6.3-3.6,7.9c-1.7,0.1-5.6,0.3-7,0.2c-2.9-0.1-5,0.5-6.3,1.8c-0.2,0.2-0.4,0.5-0.5,0.7c-1,0.2-2,0.6-2.5,1.3
			c-1.2,1.5-1.1,2.5-1.1,2.5s1.2-1.1,2.7-1.1c0.1,0,0.1,0,0.2,0c0.1,0.3,0.3,0.8,0.5,1.3c-0.3,0.2-0.5,0.4-0.7,0.7
			c-1.1,1.6-0.9,2.6-0.9,2.6s1.4-1.1,2.6-1.3c0,0,0.1,0,0.1,0c0.4,0.6,0.8,1.1,1.2,1.7c0,0,0,0,0,0c-1.1,1.6-0.9,2.6-0.9,2.6
			s1.1-0.8,2.1-1.2c0.3,0.3,0.6,0.7,0.9,0.9c1.7,1.5,5.3,0.6,10.2-0.8l3.5-0.9c2.4-0.4,3.8-1.4,4.9-3.2c0.5-0.8,2.6-5.8,3.2-7.3
			c1.1-2.6,2.3-5.3,3.4-7.8c0.6-0.5,1.1-0.9,1.6-1.2c1.9-1.3,6.1-3.7,6.1-3.7s-0.8-1.8-2.4-1.9c0,0,1.6-1.6,3.3-2.6
			c1.5-1,4.3-1.5,4.3-1.5s-2-1.5-3.4-2.1c-0.8-0.4-2-0.6-2.8-0.7c-0.2-1.2-0.8-1.6-1.7-2c-0.8-0.4-1.9-1-3.5-2.9
			c-2.1-2.5-2.4-7.3-2.4-12c0-1,0-2.1,0-3.1l0-4.6c-0.1-5.4-0.9-9.1-1.7-11.6c7-0.6,19.9-2.1,25.1-8.5c1.6-1.9,2.4-4.2,2.4-6.7
			C143.8,100.3,143.6,99.2,143.3,98"/>
		<path class="st4" d="M93,156.5c0.9-0.9,1.4-1.3,1.4-2c0-0.5-0.3-1.2-1-2.2c-0.5-0.8-0.7-1.8-0.7-2.8c0-3.5,2.3-7.6,3.2-9.1
			c-0.3-0.3-0.6-0.8-1.1-1.4c-0.2-0.2-0.5-0.3-0.6-0.4c-0.6-0.4-2.1-1.7-3-2.9c-0.1-0.2-0.3-0.4-0.4-0.6c-1.9-0.1-6.5-0.2-11.2,1.2
			c1.4,0.8,1.8,1.9,1.8,3.3c-3.1-0.7-5.7-0.7-8-0.4c0.8,1.4,1.7,2.8,2,3.3c2,2.9,5.1,6.8,7.5,9.3c0.4,0.4,0.6,0.9,0.6,1.6
			c0,1.5-1,3.7-2.1,6.4l-0.6,1.4l-3.7,8.7l-0.5,0c-0.2,0-6.1,0.4-8,0.3c-2.1-0.1-3.7,0.3-4.7,1c0.1,0.4,0.2,0.9,0,1.4
			c-0.2,0.7-0.6,1-0.9,1.1c0,0.1,0.1,0.2,0.2,0.3c1.1-0.4,2.2-0.5,2.2-0.5s0.6,0.8,0.4,1.9c-0.2,0.8-0.6,1.2-0.9,1.4
			c0.1,0.1,0.2,0.2,0.2,0.3c1.3-0.5,2.7-0.7,2.7-0.7s0.7,1,0.4,2.1c-0.1,0.6-0.4,0.9-0.7,1.1c1.6,0.5,5.6-0.7,8.1-1.4l3.7-1
			c1.9-0.4,2.9-1,3.7-2.3l0.8-1.8c0.5-1.1,1-2.3,1.4-3c1.1-1.8,2.4-4.4,3.6-6.9C90.6,160.3,91.9,157.5,93,156.5"/>
		<path class="st4" d="M23.1,134c0,0,0,0.1,0,0.1h0C23.2,134.1,23.1,134,23.1,134"/>
		<path class="st2" d="M15.6,123.9c-1.1,1.7-3.2,2.5-5.9,2.8c0.5-2.7,0-4.5-0.9-6.6c-0.9-1.9-3.2-5.5-3.9-7.6
			c-0.2-0.6-0.4-1.1-0.6-1.6c-3.7-2.7-7.8-6-9.8-8.7c-0.5-0.6-1.2-2.9-2.6-7.6l-0.6-2.1l-0.3-1.2c-0.9-3.5-1.7-5.3-2.2-5.6
			c-0.4-0.1-0.7-0.1-1-0.2v0c0,0-0.2,1.1-1.9,1c-0.4,0-0.8-0.2-1-0.3c-0.2,0.1-0.3,0.2-0.4,0.3l-0.2,0.1c-0.1,0.1-0.2,0.1-0.3,0.2
			c1,0.9,1.8,2.2,1.8,2.2s-0.4,1.1-1.8,1.3c-1,0.2-1.7-0.5-1.7-0.5s0-0.3-0.1-0.8c-0.4,0.8-0.6,1.7-0.4,2.8c1.4,0.7,2.6,2,2.6,2
			s0,1-1.4,1.7c-0.5,0.3-1.1,0.1-1.4-0.1c-0.2,1,0.4,2.5,1.5,3.5l3.8,3.2l0.1,0.2c1.2,2.7,2.6,5.3,3.5,6.3c0.3,0.3,1.5,2.3,4.6,7.8
			c4.2,7.2,10.6,18.2,12.2,20c0.6,0.6,5-0.4,9.2-2.1C14.9,130.2,16.2,127.6,15.6,123.9"/>
		<path class="st2" d="M141.6,98.4c-0.8-2.9-2.1-4-4.1-5.1c-5.7-3-13.6-0.8-20.6,1.6c-5.9,2-7.5,2.5-13.7,3.5
			c-6.3,1-21.4,2.7-26.8-1.7c-1.1-0.9-2-2.6-2.1-3.9C74.1,90.6,75,88,75.9,87c1.7-1.8,4.8-2.6,10.3-2.6c0,0,8.2,0.1,12.7,0.2l1-0.9
			l-0.9-1c-5.6-0.4-10.1-0.6-12.7-0.6c-6.6,0-10.3,1-12.5,3.4c-1.8,1.9-2.5,4.4-2.3,7.5c0.2,2.3,1.2,4.2,3,5.7
			c5.7,4.7,22.3,3.6,29.5,2.3c7-1.2,9-1.8,13.1-3.1l0.2-0.1c3.7-1.2,13.5-4.5,18.3-2c1.3,0.7,2.1,1.8,2.6,3.6
			c0.6,2.1,0.3,3.8-0.9,5.3c-4.2,5.1-17.7,5.9-25,6.2l-0.2,0l-0.1,0c0,0-4.3-1-9.8-1.1c-3.5,0-6.5,0.2-9.6,0.4
			c-5.9,0.4-11.9,0.9-22.1-0.2c-4.5-0.5-8.7-1.3-12-2.3c-0.2,1.4-0.7,2.9-1.4,4.9c-0.7,2.1-3,5.7-3.9,7.6c-1,2.1-1.4,3.9-0.9,6.6
			c-2.7-0.3-4.7-1.1-5.8-2.8c-0.8,5,2,8-3.9,16c-0.6-2.4-3.9-3.2-3.6-5.9c-1,2.8,0.6,4.5-1.7,9.2c-0.6,1.2-3.9,6.1-5.7,7.5
			c-0.7,3.4-2,9.1-3.3,13.8c-1.8,6.4-3.3,9.3-4,10.5l-0.2,0.4l-0.5,0c-1.9,0.1-6.4,0.3-7.8,0.2c-2-0.1-3.5,0.2-4.5,0.9
			c0.1,0.5,0.2,1.2-0.2,1.7c-0.3,0.6-0.8,0.9-1.1,1c0,0.1,0.1,0.2,0.2,0.4c1.3-0.4,2.6-0.4,2.6-0.4s0.5,1.1,0,2.4
			c-0.2,0.5-0.5,0.8-0.8,0.9c0.1,0.2,0.3,0.4,0.4,0.5c1.4-0.6,2.9-0.8,2.9-0.8s0.6,0.8,0.2,2.5c-0.1,0.5-0.4,0.8-0.6,0.9
			c1.8,0.6,6.8-0.8,9.6-1.5l3.6-0.9c1.9-0.4,3-1,3.9-2.4c0.2-0.3,0.5-1.1,0.7-1.9c0,0,0.3-1,0.3-1c0.8-2.2,1.4-3.8,3-6.3
			c3.7-5.8,14.4-23.5,14.9-24.9c0-0.1,0-0.2,0-0.3c0-0.9-0.5-3-0.8-4.3l-0.2-0.8c0,0,35-10.2,37-10.8c-0.7-1.2-2.2-3.7-2.2-3.7
			l1.3-1.1c0.1,0.1,2.8,2,4.3,3.5c1.3,1.3,2.6,3.3,3.9,5.4l0.7,1.1c1.5,2.4,3,4.1,3,4.1l0.1,0.1l0,0.1c0,0,1.2,2.1,4.8,6.1l9.3,10.1
			l-0.1,0.5c0,0-1.1,4.8-3,10c-1.3,3.5-3.1,7.1-3.9,8.6l-0.2,0.4l-0.5,0c-1.8,0.1-6.1,0.3-7.7,0.3c-2-0.1-3.5,0.2-4.5,0.9
			c0.1,0.5,0.3,1.2,0,1.7c-0.3,0.6-0.7,1-1,1.1c0,0.1,0.1,0.2,0.1,0.3c1.2-0.4,2.3-0.5,2.3-0.5s0.6,0.9,0.4,2.1
			c-0.1,0.8-0.5,1.1-0.8,1.3c0.1,0.2,0.2,0.3,0.3,0.5c1.4-0.7,3.1-0.8,3.1-0.8s0.6,0.8,0.4,2.1c-0.1,0.6-0.5,1-0.8,1.2
			c1.8,0.2,5.4-0.8,7.7-1.5l3.6-0.9c1.9-0.3,2.9-1,3.7-2.4c0.4-0.6,2.3-5.2,3.1-7c2.2-5.4,5.4-12.2,7.5-15.8l1.2-1.8
			c0.7-1,1.3-1.9,1.2-2.5c-0.1-0.8-0.1-0.8-0.9-1.2c-0.9-0.4-2.2-1.1-4.1-3.3c-3-3.6-2.9-10.3-2.8-16.3l0-4.5
			c-0.2-5.9-1.1-9.9-1.9-12.1l-0.4-1.1l1.1-0.1c6.5-0.6,19.9-1.8,25-8C142,104.6,142.5,101.7,141.6,98.4"/>
		<path class="st3" d="M106.7,28.7c0.8,1,1.4,2.1,1.9,3.2c-0.6,0.1-1.2,0.1-1.9,0.1c-0.6,0-1.3,0-1.9-0.1
			C105.3,30.8,105.9,29.7,106.7,28.7"/>
		<path class="st2" d="M98.9,28.3c-1.4-1.1-2.6-2.4-3.4-3.9c0,0,0,0,0.1,0c1.8,0,3.5,0.4,5,1C99.9,26.3,99.4,27.3,98.9,28.3
			 M87.8,27c1.9,4.1,5.1,7.4,9.1,9.5c0,0.2,0,0.5,0,0.7c0,4.4,1.4,8.4,3.7,11.8c-1.6,0.7-3.3,1-5,1c-7.1,0-12.9-5.8-12.9-12.9
			C82.7,33.1,84.7,29.4,87.8,27 M117.8,24.4L117.8,24.4c-0.8,1.5-2,2.9-3.4,3.9c-0.5-1-1-2-1.6-2.9
			C114.4,24.8,116.1,24.4,117.8,24.4 M95.6,16.3c-0.5,0-1.1,0-1.6,0.1c0.8-6.4,6.2-11.2,12.8-11.2c6.5,0,11.9,4.9,12.7,11.2
			l-1.6-0.1c-4,0-7.8,1.1-11.1,3.2C103.4,17.5,99.6,16.3,95.6,16.3 M116.4,36.6c4-2.1,7.2-5.5,9.1-9.6c3.2,2.4,5.1,6.2,5.1,10.2
			c0,7.1-5.8,12.9-12.9,12.9c-1.8,0-3.5-0.4-5-1c2.4-3.5,3.7-7.5,3.7-11.8L116.4,36.6z M105.1,38.9l1.6,0.1c0.5,0,1.1,0,1.6-0.1
			c-0.2,1.7-0.8,3.3-1.6,4.8C105.8,42.2,105.3,40.6,105.1,38.9 M127.5,18.8c0-0.2,0-0.4,0-0.7c0-11.5-9.4-20.9-20.9-20.9
			S85.8,6.6,85.8,18.1l0,0.7c-6.6,3.5-11.1,10.5-11.1,18.5c0,11.5,9.4,20.9,20.9,20.9c4,0,7.8-1.1,11.1-3.2c3.2,2,7,3.2,11.1,3.2
			c11.5,0,20.9-9.4,20.9-20.9C138.7,29.5,134.3,22.4,127.5,18.8"/>
		<path class="st3" d="M110.6,38.7c1.2-0.2,2.3-0.6,3.4-1c-0.1,3.8-1.2,7.3-3.4,10.3c-0.9-0.6-1.8-1.4-2.5-2.2
			C109.6,43.7,110.4,41.3,110.6,38.7"/>
		<path class="st3" d="M106.7-0.3c10.2,0,18.6,8.3,18.6,18.6c0,10.2-8.3,18.6-18.6,18.6l-1.7-0.1c0.1-1.1,0.3-2.2,0.6-3.3l1.1,0.1
			c8.4,0,15.2-6.8,15.2-15.2C121.9,9.8,115,3,106.7,3c-8,0-14.4,6-15.1,13.8c-1.2,0.2-2.3,0.6-3.4,1C88.3,7.8,96.6-0.3,106.7-0.3"/>
		<path class="st3" d="M117.8,18.8l1.7,0.1c-0.1,1.1-0.3,2.3-0.6,3.3l-1.1-0.1c-2.2,0-4.5,0.5-6.5,1.5c-0.8-0.9-1.6-1.7-2.6-2.5
			C111.5,19.6,114.6,18.8,117.8,18.8"/>
		<path class="st3" d="M95.6,55.9C85.3,55.9,77,47.6,77,37.4c0-10.2,8.3-18.6,18.6-18.6c7.4,0,13.9,4.2,16.9,10.9
			c-1,0.5-2.1,0.9-3.2,1.1c-2.5-5.3-7.8-8.6-13.7-8.6c-8.4,0-15.2,6.8-15.2,15.2s6.8,15.2,15.2,15.2c2.3,0,4.5-0.5,6.5-1.5
			c0.8,0.9,1.6,1.7,2.5,2.5C101.8,55.1,98.8,55.9,95.6,55.9"/>
		<path class="st3" d="M93,24.8c1.1,2.4,2.9,4.4,5,5.9c-0.4,1.1-0.7,2.3-0.8,3.5c-3.2-1.9-5.8-4.8-7.4-8.3
			C90.8,25.4,91.9,25,93,24.8"/>
		<path class="st3" d="M117.8,55.9c-10.2,0-18.6-8.3-18.6-18.6c0-3.9,1.2-7.6,3.4-10.7c0.9,0.6,1.8,1.4,2.5,2.2
			c-1.7,2.5-2.6,5.4-2.6,8.5c0,8.4,6.8,15.2,15.2,15.2c8.4,0,15.2-6.8,15.2-15.2c0-5-2.4-9.6-6.5-12.5c0.4-1.1,0.7-2.3,0.8-3.5
			c5.5,3.3,9.1,9.4,9.1,15.9C136.3,47.6,128,55.9,117.8,55.9"/>
		<path class="st2" d="M44.8,92.6c1.1-0.8,3.7-2.9,2.3-5.6c-1.5-2.8-4.9-1.7-5.9-1.2c-0.1-0.1-7.7-3.4-7.8-3.4c0.1,0-3,3.5-3,3.5
			s-3-3.5-2.9-3.5c-0.1-0.1-7.7,3.2-7.8,3.4c-1-0.4-4.4-1.6-5.9,1.2c-1.4,2.6,1.2,4.8,2.3,5.6c0,0,0,0.1,0,0.1s-2.5,4.4-2.4,4.3
			c0-0.1,7.1,8.6,7.1,8.6c0,0,0,5.6,0,5.6c0,0,2.8,1.9,3,2c0.5,2.1,0.6,3.2,1.1,4.4c0.2,0.4,2.9,1.2,5.5,1.2h0.2
			c2.6,0,5.3-0.8,5.5-1.2c0.5-1.2,0.6-2.2,1.1-4.4c0.2-0.1,3-2,3-2c0,0,0-5.6,0-5.6c0,0,7.1-8.7,7.1-8.6
			C47.3,97.1,44.8,92.7,44.8,92.6C44.8,92.7,44.8,92.7,44.8,92.6"/>
		<path class="st0" d="M26.9,93l-0.2,3.7l-6.3-3.6L26.9,93z"/>
		<path class="st0" d="M35.1,96.8c0,0.3,1,8.8,1,8.8s-4.6,2.5-4.9,2.6c0,0.2,0,2.9,0,3.2c0.2,0.2,1,0.8,1.9,1.2
			c1.6,0.7,3.1,0.3,3.1,0.3l0.4-0.1l-0.3,1.2l-0.1,0c-0.1,0-1.8,0.3-3.3-0.1c-1.2-0.4-1.9-0.9-2.1-1h-0.8c-0.2,0.1-0.9,0.6-2.1,1
			c-1.4,0.4-3.2,0.1-3.3,0.1l-0.1,0l-0.3-1.2l0.4,0.1c0,0,1.6,0.4,3.2-0.3c0.9-0.4,1.7-1,1.9-1.2c0-0.2,0-3,0-3.2
			c-0.2-0.1-4.8-3.4-4.8-3.4s8.2,0,8.7,0V93.2l6.8-0.1l0.9,0C41.2,93.1,35.3,96.6,35.1,96.8"/>
	</g>
</g>
</svg>
